<svg width="403" height="207" viewBox="0 0 403 207" fill="none" xmlns="http://www.w3.org/2000/svg">
<g filter="url(#filter0_d_5_855)">
<path d="M2.99542 52.5V49.5H5.99542V46.5H8.99542V49.5V52.5H5.99542V55.5H2.99542V52.5Z" fill="#1E3445"/>
<path d="M2.99542 52.5V55.5H1.62125e-05V52.5H2.99542Z" fill="#1E3445"/>
<rect x="8.99542" y="46.5" width="382.009" height="3" fill="#1E3445"/>
<path d="M397.005 52.5V49.5H394.005V46.5H391.005V49.5V52.5H394.005V55.5H397.005V52.5Z" fill="#1E3445"/>
<path d="M397.005 52.5V55.5H400V52.5H397.005Z" fill="#1E3445"/>
<rect y="55.5" width="3" height="96" fill="#1E3445"/>
<rect width="394" height="108" transform="translate(3 49.5)" fill="white"/>
<rect x="397" y="55.5" width="3" height="96" fill="#1E3445"/>
<path d="M397 49.5V52.5V55.5H394V52.5H391V49.5H394H397Z" fill="#1E3445"/>
<path d="M3 49.5V52.5V55.5H6V52.5H9V49.5H6H3Z" fill="#1E3445"/>
<path d="M2.99542 154.5V157.5H5.99542V160.5H8.99542V157.5V154.5H5.99542V151.5H2.99542V154.5Z" fill="#1E3445"/>
<path d="M2.99542 154.5V151.5H1.62125e-05V154.5H2.99542Z" fill="#1E3445"/>
<rect width="382.009" height="3" transform="matrix(1 0 0 -1 8.99542 160.5)" fill="#1E3445"/>
<path d="M397.005 154.5V157.5H394.005V160.5H391.005V157.5V154.5H394.005V151.5H397.005V154.5Z" fill="#1E3445"/>
<path d="M397.005 154.5V151.5H400V154.5H397.005Z" fill="#1E3445"/>
</g>
<defs>
<filter id="filter0_d_5_855" x="0" y="0" width="403" height="210" filterUnits="userSpaceOnUse" color-interpolation-filters="sRGB">
<feFlood flood-opacity="0" result="BackgroundImageFix"/>
<feColorMatrix in="SourceAlpha" type="matrix" values="0 0 0 0 0 0 0 0 0 0 0 0 0 0 0 0 0 0 127 0" result="hardAlpha"/>
<feOffset dx="3" dy="3"/>
<feComposite in2="hardAlpha" operator="out"/>
<feColorMatrix type="matrix" values="0 0 0 0 0.117647 0 0 0 0 0.203922 0 0 0 0 0.270588 0 0 0 1 0"/>
<feBlend mode="normal" in2="BackgroundImageFix" result="effect1_dropShadow_5_855"/>
<feBlend mode="normal" in="SourceGraphic" in2="effect1_dropShadow_5_855" result="shape"/>
</filter>
</defs>
</svg>
