<svg width="78" height="45" viewBox="0 0 78 45" fill="none" xmlns="http://www.w3.org/2000/svg">
<g filter="url(#filter0_d_5_711)">
<mask id="path-1-outside-1_5_711" maskUnits="userSpaceOnUse" x="0" y="0" width="75" height="42" fill="black">
<rect fill="white" width="75" height="42"/>
<path d="M3 3V6H6V9H9V12H12V15H15V18H18V21H21V24H24V27H27V30H30V33H33V36H36V39H39V36H42V33H45V30H48V27H51V24H54V21H57V18H60V15H63V12H66V9H69V6H72V3H3Z"/>
</mask>
<path d="M3 3V6H6V9H9V12H12V15H15V18H18V21H21V24H24V27H27V30H30V33H33V36H36V39H39V36H42V33H45V30H48V27H51V24H54V21H57V18H60V15H63V12H66V9H69V6H72V3H3Z" fill="#E1A414"/>
<path d="M3 3H0V0H3V3ZM3 6V9H0V6H3ZM6 6V3H9V6H6ZM6 9V12H3V9H6ZM9 9V6H12V9H9ZM9 12V15H6V12H9ZM12 12V9H15V12H12ZM12 15V18H9V15H12ZM15 15V12H18V15H15ZM15 18V21H12V18H15ZM18 18V15H21V18H18ZM18 21V24H15V21H18ZM21 21V18H24V21H21ZM21 24V27H18V24H21ZM24 24V21H27V24H24ZM24 27V30H21V27H24ZM27 27V24H30V27H27ZM27 30V33H24V30H27ZM30 30V27H33V30H30ZM30 33V36H27V33H30ZM33 33V30H36V33H33ZM33 36V39H30V36H33ZM36 36V33H39V36H36ZM36 39V42H33V39H36ZM39 39H42V42H39V39ZM39 36H36V33H39V36ZM42 36H45V39H42V36ZM42 33H39V30H42V33ZM45 33H48V36H45V33ZM45 30H42V27H45V30ZM48 30H51V33H48V30ZM48 27H45V24H48V27ZM51 27H54V30H51V27ZM51 24H48V21H51V24ZM54 24H57V27H54V24ZM54 21H51V18H54V21ZM57 21H60V24H57V21ZM57 18H54V15H57V18ZM60 18H63V21H60V18ZM60 15H57V12H60V15ZM63 15H66V18H63V15ZM63 12H60V9H63V12ZM66 12H69V15H66V12ZM66 9H63V6H66V9ZM69 9H72V12H69V9ZM69 6H66V3H69V6ZM72 6H75V9H72V6ZM72 3V0H75V3H72ZM3 3H6V6H3H0V3H3ZM3 6V3H6V6V9H3V6ZM6 6H9V9H6H3V6H6ZM6 9V6H9V9V12H6V9ZM9 9H12V12H9H6V9H9ZM9 12V9H12V12V15H9V12ZM12 12H15V15H12H9V12H12ZM12 15V12H15V15V18H12V15ZM15 15H18V18H15H12V15H15ZM15 18V15H18V18V21H15V18ZM18 18H21V21H18H15V18H18ZM18 21V18H21V21V24H18V21ZM21 21H24V24H21H18V21H21ZM21 24V21H24V24V27H21V24ZM24 24H27V27H24H21V24H24ZM24 27V24H27V27V30H24V27ZM27 27H30V30H27H24V27H27ZM27 30V27H30V30V33H27V30ZM30 30H33V33H30H27V30H30ZM30 33V30H33V33V36H30V33ZM33 33H36V36H33H30V33H33ZM33 36V33H36V36V39H33V36ZM36 36H39V39H36H33V36H36ZM36 39V36H39V39V42H36V39ZM39 39H36V36H39H42V39H39ZM39 36V33H42V36V39H39V36ZM42 36H39V33H42H45V36H42ZM42 33V30H45V33V36H42V33ZM45 33H42V30H45H48V33H45ZM45 30V27H48V30V33H45V30ZM48 30H45V27H48H51V30H48ZM48 27V24H51V27V30H48V27ZM51 27H48V24H51H54V27H51ZM51 24V21H54V24V27H51V24ZM54 24H51V21H54H57V24H54ZM54 21V18H57V21V24H54V21ZM57 21H54V18H57H60V21H57ZM57 18V15H60V18V21H57V18ZM60 18H57V15H60H63V18H60ZM60 15V12H63V15V18H60V15ZM63 15H60V12H63H66V15H63ZM63 12V9H66V12V15H63V12ZM66 12H63V9H66H69V12H66ZM66 9V6H69V9V12H66V9ZM69 9H66V6H69H72V9H69ZM69 6V3H72V6V9H69V6ZM72 6H69V3H72H75V6H72ZM72 3V6H3V3V0H72V3Z" fill="#1E3445" mask="url(#path-1-outside-1_5_711)"/>
</g>
<g filter="url(#filter1_d_5_711)">
<path d="M3 3V6H6V9H9V12H12V15H15V18H18V21H21V24H24V27H27V30H30V33H33V36H36V39H39V36H42V33H45V30H48V27H51V24H54V21H57V18H60V15H63V12H66V9H69V6H72V3H3Z" fill="white" fill-opacity="0.3" shape-rendering="crispEdges"/>
</g>
<defs>
<filter id="filter0_d_5_711" x="0" y="0" width="78" height="45" filterUnits="userSpaceOnUse" color-interpolation-filters="sRGB">
<feFlood flood-opacity="0" result="BackgroundImageFix"/>
<feColorMatrix in="SourceAlpha" type="matrix" values="0 0 0 0 0 0 0 0 0 0 0 0 0 0 0 0 0 0 127 0" result="hardAlpha"/>
<feOffset dx="3" dy="3"/>
<feComposite in2="hardAlpha" operator="out"/>
<feColorMatrix type="matrix" values="0 0 0 0 0.117647 0 0 0 0 0.203922 0 0 0 0 0.270588 0 0 0 1 0"/>
<feBlend mode="normal" in2="BackgroundImageFix" result="effect1_dropShadow_5_711"/>
<feBlend mode="normal" in="SourceGraphic" in2="effect1_dropShadow_5_711" result="shape"/>
</filter>
<filter id="filter1_d_5_711" x="3" y="3" width="72" height="39" filterUnits="userSpaceOnUse" color-interpolation-filters="sRGB">
<feFlood flood-opacity="0" result="BackgroundImageFix"/>
<feColorMatrix in="SourceAlpha" type="matrix" values="0 0 0 0 0 0 0 0 0 0 0 0 0 0 0 0 0 0 127 0" result="hardAlpha"/>
<feOffset dx="3" dy="3"/>
<feComposite in2="hardAlpha" operator="out"/>
<feColorMatrix type="matrix" values="0 0 0 0 0.117647 0 0 0 0 0.203922 0 0 0 0 0.270588 0 0 0 1 0"/>
<feBlend mode="normal" in2="BackgroundImageFix" result="effect1_dropShadow_5_711"/>
<feBlend mode="normal" in="SourceGraphic" in2="effect1_dropShadow_5_711" result="shape"/>
</filter>
</defs>
</svg>
