<svg width="403" height="207" viewBox="0 0 403 207" fill="none" xmlns="http://www.w3.org/2000/svg">
<g filter="url(#filter0_d_18_788)">
<path d="M2.99536 31.5V28.5H5.99536V25.5H8.99536V28.5V31.5H5.99536V34.5H2.99536V31.5Z" fill="#1E3445"/>
<path d="M2.99536 31.5V34.5H-4.48227e-05V31.5H2.99536Z" fill="#1E3445"/>
<rect x="8.99536" y="25.5" width="382.009" height="3" fill="#1E3445"/>
<path d="M397.005 31.5V28.5H394.005V25.5H391.005V28.5V31.5H394.005V34.5H397.005V31.5Z" fill="#1E3445"/>
<path d="M397.005 31.5V34.5H400V31.5H397.005Z" fill="#1E3445"/>
<rect y="34.5" width="3" height="138" fill="#1E3445"/>
<rect width="394" height="150" transform="translate(3 28.5)" fill="white"/>
<path d="M16.632 44.532H17.928V47.172C17.928 47.9613 17.8587 48.74 17.72 49.508C17.5813 50.2653 17.368 50.98 17.08 51.652C16.8027 52.3133 16.4507 52.916 16.024 53.46C15.608 53.9933 15.1227 54.4253 14.568 54.756L13.512 53.508C14.0453 53.1987 14.504 52.8147 14.888 52.356C15.272 51.8973 15.592 51.3853 15.848 50.82C16.1147 50.2547 16.312 49.6627 16.44 49.044C16.568 48.4147 16.632 47.7907 16.632 47.172V44.532ZM16.952 44.532H18.264V47.06C18.264 47.668 18.3173 48.276 18.424 48.884C18.5413 49.4813 18.7173 50.0413 18.952 50.564C19.1973 51.0867 19.5013 51.5667 19.864 52.004C20.2373 52.4307 20.6693 52.7773 21.16 53.044L20.184 54.372C19.6187 54.052 19.1333 53.6413 18.728 53.14C18.3227 52.628 17.9867 52.052 17.72 51.412C17.464 50.7613 17.272 50.068 17.144 49.332C17.016 48.5853 16.952 47.828 16.952 47.06V44.532ZM24.616 43.188H26.216V57.812H24.616V43.188ZM22.536 48.98H25.176V50.356H22.536V48.98ZM21.432 43.476H23V57.124H21.432V43.476ZM28.9548 54.724H42.2028V56.1H28.9548V54.724ZM34.7148 51.748H36.3948V55.284H34.7148V51.748ZM30.5228 44.212H40.6348V48.852H32.2028V51.556H30.5548V47.524H38.9708V45.572H30.5228V44.212ZM30.5548 50.884H40.9708V52.228H30.5548V50.884ZM44.1735 50.484H57.4215V51.828H44.1735V50.484ZM50.0455 51.348H51.7575V54.58H50.0455V51.348ZM45.7895 56.164H55.9495V57.524H45.7895V56.164ZM45.7895 53.204H47.4855V56.516H45.7895V53.204ZM50.7815 43.508C51.8162 43.508 52.7228 43.6307 53.5015 43.876C54.2802 44.1213 54.8828 44.468 55.3095 44.916C55.7468 45.364 55.9655 45.892 55.9655 46.5C55.9655 47.108 55.7468 47.636 55.3095 48.084C54.8828 48.532 54.2802 48.8787 53.5015 49.124C52.7228 49.3587 51.8162 49.476 50.7815 49.476C49.7468 49.476 48.8348 49.3587 48.0455 49.124C47.2668 48.8787 46.6642 48.532 46.2375 48.084C45.8108 47.636 45.5975 47.108 45.5975 46.5C45.5975 45.892 45.8108 45.364 46.2375 44.916C46.6642 44.468 47.2668 44.1213 48.0455 43.876C48.8348 43.6307 49.7468 43.508 50.7815 43.508ZM50.7815 44.868C50.0988 44.868 49.5015 44.932 48.9895 45.06C48.4775 45.188 48.0828 45.3747 47.8055 45.62C47.5282 45.8653 47.3895 46.1587 47.3895 46.5C47.3895 46.8413 47.5282 47.1347 47.8055 47.38C48.0828 47.6253 48.4775 47.812 48.9895 47.94C49.5015 48.068 50.0988 48.132 50.7815 48.132C51.4748 48.132 52.0722 48.068 52.5735 47.94C53.0748 47.812 53.4642 47.6253 53.7415 47.38C54.0295 47.1347 54.1735 46.8413 54.1735 46.5C54.1735 46.1587 54.0295 45.8653 53.7415 45.62C53.4642 45.3747 53.0748 45.188 52.5735 45.06C52.0722 44.932 51.4748 44.868 50.7815 44.868ZM65.6001 44.532H74.8481V45.892H65.6001V44.532ZM64.0641 54.596H77.2801V55.972H64.0641V54.596ZM74.1761 44.532H75.8241V45.876C75.8241 46.4627 75.8135 47.092 75.7921 47.764C75.7815 48.436 75.7335 49.1773 75.6481 49.988C75.5628 50.7987 75.4135 51.7213 75.2001 52.756L73.5361 52.564C73.8561 51.124 74.0428 49.8653 74.0961 48.788C74.1495 47.7 74.1761 46.7293 74.1761 45.876V44.532ZM74.4961 48.036V49.316L65.4081 49.812L65.1841 48.372L74.4961 48.036ZM68.9921 50.948H70.6721V55.092H68.9921V50.948ZM89.6669 43.188H91.3469V57.844H89.6669V43.188ZM80.0989 52.98H81.3469C82.1895 52.98 82.9949 52.9693 83.7629 52.948C84.5415 52.916 85.3149 52.8627 86.0829 52.788C86.8509 52.7133 87.6455 52.612 88.4669 52.484L88.6269 53.844C87.3682 54.0573 86.1629 54.2013 85.0109 54.276C83.8589 54.34 82.6375 54.372 81.3469 54.372H80.0989V52.98ZM80.0669 44.5H86.8989V49.908H81.7949V53.508H80.0989V48.58H85.1869V45.86H80.0669V44.5ZM99.2216 44.212C99.9896 44.212 100.672 44.3613 101.27 44.66C101.867 44.9587 102.336 45.3747 102.678 45.908C103.019 46.4307 103.19 47.0387 103.19 47.732C103.19 48.4147 103.019 49.0227 102.678 49.556C102.336 50.0893 101.867 50.5053 101.27 50.804C100.672 51.1027 99.9896 51.252 99.2216 51.252C98.4643 51.252 97.787 51.1027 97.1896 50.804C96.5923 50.5053 96.1176 50.0893 95.7656 49.556C95.4243 49.0227 95.2536 48.4147 95.2536 47.732C95.2536 47.0387 95.4243 46.4307 95.7656 45.908C96.1176 45.3747 96.5923 44.9587 97.1896 44.66C97.787 44.3613 98.4643 44.212 99.2216 44.212ZM99.2216 45.668C98.7843 45.668 98.3843 45.7533 98.0216 45.924C97.6696 46.084 97.3923 46.3187 97.1896 46.628C96.987 46.9373 96.8856 47.3053 96.8856 47.732C96.8856 48.148 96.987 48.516 97.1896 48.836C97.3923 49.1453 97.6696 49.3853 98.0216 49.556C98.3843 49.7267 98.7843 49.812 99.2216 49.812C99.6696 49.812 100.064 49.7267 100.406 49.556C100.758 49.3853 101.035 49.1453 101.238 48.836C101.44 48.516 101.542 48.148 101.542 47.732C101.542 47.3053 101.44 46.9373 101.238 46.628C101.035 46.3187 100.758 46.084 100.406 45.924C100.064 45.7533 99.6696 45.668 99.2216 45.668ZM104.854 43.188H106.534V57.844H104.854V43.188ZM94.7896 54.74L94.5656 53.364C95.451 53.364 96.4216 53.3587 97.4776 53.348C98.5336 53.3267 99.6163 53.284 100.726 53.22C101.846 53.1453 102.928 53.028 103.974 52.868L104.102 54.1C103.024 54.3027 101.931 54.452 100.822 54.548C99.723 54.6333 98.6563 54.6867 97.6216 54.708C96.587 54.7293 95.643 54.74 94.7896 54.74ZM124.744 43.188H126.424V57.844H124.744V43.188ZM118.648 44.26C119.374 44.26 120.019 44.4733 120.584 44.9C121.16 45.3267 121.608 45.924 121.928 46.692C122.248 47.46 122.408 48.3667 122.408 49.412C122.408 50.468 122.248 51.3853 121.928 52.164C121.608 52.932 121.16 53.5293 120.584 53.956C120.019 54.372 119.374 54.58 118.648 54.58C117.923 54.58 117.272 54.372 116.696 53.956C116.131 53.5293 115.683 52.932 115.352 52.164C115.032 51.3853 114.872 50.468 114.872 49.412C114.872 48.3667 115.032 47.46 115.352 46.692C115.683 45.924 116.131 45.3267 116.696 44.9C117.272 44.4733 117.923 44.26 118.648 44.26ZM118.648 45.78C118.222 45.78 117.843 45.924 117.512 46.212C117.192 46.5 116.942 46.916 116.76 47.46C116.579 48.004 116.488 48.6547 116.488 49.412C116.488 50.18 116.579 50.836 116.76 51.38C116.942 51.924 117.192 52.3453 117.512 52.644C117.843 52.932 118.222 53.076 118.648 53.076C119.075 53.076 119.448 52.932 119.768 52.644C120.088 52.3453 120.339 51.924 120.52 51.38C120.702 50.836 120.792 50.18 120.792 49.412C120.792 48.6547 120.702 48.004 120.52 47.46C120.339 46.916 120.088 46.5 119.768 46.212C119.448 45.924 119.075 45.78 118.648 45.78ZM129.611 50.66H142.859V52.004H129.611V50.66ZM131.259 43.524H141.195V47.172H132.939V48.964H131.291V45.972H139.531V44.82H131.259V43.524ZM131.291 48.34H141.483V49.62H131.291V48.34ZM131.339 53.14H141.227V57.636H131.339V53.14ZM139.579 54.452H132.987V56.308H139.579V54.452ZM151.438 43.428C153.08 43.428 154.355 43.6467 155.262 44.084C156.179 44.5107 156.638 45.1293 156.638 45.94C156.638 46.7507 156.179 47.3747 155.262 47.812C154.355 48.2493 153.08 48.468 151.438 48.468C149.795 48.468 148.515 48.2493 147.598 47.812C146.68 47.3747 146.222 46.7507 146.222 45.94C146.222 45.1293 146.68 44.5107 147.598 44.084C148.515 43.6467 149.795 43.428 151.438 43.428ZM151.422 44.676C150.675 44.676 150.04 44.724 149.518 44.82C149.006 44.916 148.616 45.06 148.35 45.252C148.094 45.4333 147.966 45.6627 147.966 45.94C147.966 46.2173 148.094 46.452 148.35 46.644C148.616 46.836 149.006 46.98 149.518 47.076C150.04 47.172 150.675 47.22 151.422 47.22C152.19 47.22 152.83 47.172 153.342 47.076C153.854 46.98 154.243 46.836 154.51 46.644C154.776 46.452 154.91 46.2173 154.91 45.94C154.91 45.6627 154.776 45.4333 154.51 45.252C154.243 45.06 153.854 44.916 153.342 44.82C152.83 44.724 152.19 44.676 151.422 44.676ZM144.83 49.316H158.046V50.644H144.83V49.316ZM146.382 51.7H156.382V55.204H148.062V56.756H146.414V54.02H154.734V52.964H146.382V51.7ZM146.414 56.404H156.798V57.684H146.414V56.404ZM171.776 45.78H175.776V47.124H171.776V45.78ZM171.776 48.916H175.824V50.276H171.776V48.916ZM175.152 43.204H176.832V54.004H175.152V43.204ZM167.312 56.164H177.168V57.524H167.312V56.164ZM167.312 52.964H168.992V56.9H167.312V52.964ZM165.392 44.164H167.056V46.596H170.48V44.164H172.128V51.62H165.392V44.164ZM167.056 47.892V50.276H170.48V47.892H167.056ZM186.963 45.716H190.659V47.06H186.963V45.716ZM186.835 48.756H190.547V50.116H186.835V48.756ZM190.371 43.204H192.051V51.796H190.371V43.204ZM185.715 44.244H187.507C187.507 45.524 187.246 46.6707 186.723 47.684C186.2 48.6867 185.432 49.5453 184.419 50.26C183.416 50.9747 182.195 51.54 180.755 51.956L180.099 50.628C181.336 50.276 182.371 49.828 183.203 49.284C184.046 48.7293 184.675 48.0947 185.091 47.38C185.507 46.6547 185.715 45.8707 185.715 45.028V44.244ZM180.867 44.244H186.883V45.604H180.867V44.244ZM187.267 51.972C188.259 51.972 189.118 52.0893 189.843 52.324C190.568 52.5587 191.128 52.8893 191.523 53.316C191.928 53.7427 192.131 54.2547 192.131 54.852C192.131 55.4493 191.928 55.9667 191.523 56.404C191.128 56.8307 190.568 57.1613 189.843 57.396C189.118 57.6307 188.259 57.748 187.267 57.748C186.286 57.748 185.427 57.6307 184.691 57.396C183.955 57.1613 183.384 56.8307 182.979 56.404C182.574 55.9667 182.371 55.4493 182.371 54.852C182.371 54.2547 182.574 53.7427 182.979 53.316C183.384 52.8893 183.955 52.5587 184.691 52.324C185.427 52.0893 186.286 51.972 187.267 51.972ZM187.267 53.284C186.606 53.284 186.03 53.348 185.539 53.476C185.059 53.5933 184.686 53.7693 184.419 54.004C184.163 54.2387 184.035 54.5213 184.035 54.852C184.035 55.1933 184.163 55.4813 184.419 55.716C184.686 55.9507 185.059 56.132 185.539 56.26C186.03 56.3773 186.606 56.436 187.267 56.436C187.928 56.436 188.499 56.3773 188.979 56.26C189.459 56.132 189.827 55.9507 190.083 55.716C190.35 55.4813 190.483 55.1933 190.483 54.852C190.483 54.5213 190.35 54.2387 190.083 54.004C189.827 53.7693 189.459 53.5933 188.979 53.476C188.499 53.348 187.928 53.284 187.267 53.284ZM204.902 43.172H206.566V51.156H204.902V43.172ZM205.894 46.5H208.646V47.892H205.894V46.5ZM197.126 51.828H206.566V55.3H198.806V56.868H197.158V54.116H204.918V53.076H197.126V51.828ZM197.158 56.436H207.046V57.684H197.158V56.436ZM195.174 44.404H203.798V45.684H195.174V44.404ZM199.494 46.196C200.561 46.196 201.414 46.4147 202.054 46.852C202.705 47.2787 203.03 47.8653 203.03 48.612C203.03 49.3373 202.705 49.9133 202.054 50.34C201.414 50.7667 200.561 50.98 199.494 50.98C198.417 50.98 197.553 50.7667 196.902 50.34C196.262 49.9133 195.942 49.3373 195.942 48.612C195.942 47.8653 196.262 47.2787 196.902 46.852C197.553 46.4147 198.417 46.196 199.494 46.196ZM199.494 47.412C198.897 47.412 198.422 47.5187 198.07 47.732C197.718 47.9347 197.542 48.2227 197.542 48.596C197.542 48.98 197.718 49.2733 198.07 49.476C198.422 49.6787 198.897 49.78 199.494 49.78C200.081 49.78 200.545 49.6787 200.886 49.476C201.238 49.2733 201.414 48.98 201.414 48.596C201.414 48.2227 201.238 47.9347 200.886 47.732C200.545 47.5187 200.081 47.412 199.494 47.412ZM198.646 43.06H200.326V45.3H198.646V43.06ZM220.777 43.668H222.249V44.436C222.249 44.9907 222.153 45.524 221.961 46.036C221.769 46.5373 221.491 47.0013 221.129 47.428C220.777 47.8547 220.35 48.2387 219.849 48.58C219.358 48.9213 218.814 49.2093 218.217 49.444C217.619 49.668 216.979 49.8333 216.297 49.94L215.641 48.596C216.238 48.5107 216.793 48.3773 217.305 48.196C217.827 48.004 218.302 47.7747 218.729 47.508C219.155 47.2307 219.518 46.9267 219.817 46.596C220.126 46.2653 220.361 45.9187 220.521 45.556C220.691 45.1933 220.777 44.82 220.777 44.436V43.668ZM221.097 43.668H222.553V44.436C222.553 44.8093 222.633 45.1773 222.793 45.54C222.963 45.9027 223.203 46.2493 223.513 46.58C223.822 46.9107 224.19 47.2147 224.617 47.492C225.043 47.7587 225.513 47.988 226.025 48.18C226.547 48.372 227.102 48.5107 227.689 48.596L227.033 49.94C226.361 49.8333 225.726 49.6627 225.129 49.428C224.531 49.1933 223.982 48.9053 223.481 48.564C222.99 48.2227 222.563 47.8387 222.201 47.412C221.849 46.9853 221.577 46.5213 221.385 46.02C221.193 45.5187 221.097 44.9907 221.097 44.436V43.668ZM220.793 52.34H222.457V57.828H220.793V52.34ZM215.049 51.3H228.265V52.676H215.049V51.3ZM238.427 52.148H239.707V52.804C239.707 53.476 239.584 54.132 239.339 54.772C239.094 55.4013 238.726 55.9667 238.235 56.468C237.755 56.9587 237.147 57.3427 236.411 57.62L235.579 56.388C236.208 56.164 236.731 55.86 237.147 55.476C237.574 55.092 237.894 54.6653 238.107 54.196C238.32 53.7267 238.427 53.2627 238.427 52.804V52.148ZM238.827 52.148H240.043V52.804C240.043 53.2733 240.134 53.748 240.315 54.228C240.496 54.708 240.774 55.1453 241.147 55.54C241.531 55.9347 242.016 56.2547 242.603 56.5L241.915 57.748C241.19 57.46 240.598 57.0547 240.139 56.532C239.68 56.02 239.344 55.4387 239.131 54.788C238.928 54.1373 238.827 53.476 238.827 52.804V52.148ZM243.787 52.148H245.019V52.804C245.019 53.412 244.907 54.0413 244.683 54.692C244.47 55.3427 244.139 55.94 243.691 56.484C243.243 57.028 242.651 57.4493 241.915 57.748L241.227 56.5C241.814 56.2333 242.294 55.892 242.667 55.476C243.051 55.06 243.334 54.6173 243.515 54.148C243.696 53.668 243.787 53.22 243.787 52.804V52.148ZM244.155 52.148H245.435V52.804C245.435 53.2947 245.542 53.78 245.755 54.26C245.968 54.7293 246.283 55.1507 246.699 55.524C247.126 55.8867 247.654 56.1747 248.283 56.388L247.451 57.62C246.715 57.3533 246.102 56.98 245.611 56.5C245.12 56.02 244.752 55.46 244.507 54.82C244.272 54.18 244.155 53.508 244.155 52.804V52.148ZM245.307 43.204H246.987V51.524H245.307V43.204ZM239.099 44.004C239.846 44.004 240.512 44.1533 241.099 44.452C241.686 44.74 242.144 45.1453 242.475 45.668C242.816 46.18 242.987 46.7773 242.987 47.46C242.987 48.1427 242.816 48.74 242.475 49.252C242.144 49.764 241.686 50.1693 241.099 50.468C240.512 50.756 239.846 50.9 239.099 50.9C238.352 50.9 237.686 50.756 237.099 50.468C236.512 50.1693 236.048 49.764 235.707 49.252C235.376 48.74 235.211 48.1427 235.211 47.46C235.211 46.7773 235.376 46.18 235.707 45.668C236.048 45.1453 236.512 44.74 237.099 44.452C237.686 44.1533 238.352 44.004 239.099 44.004ZM239.099 45.396C238.672 45.396 238.288 45.4813 237.947 45.652C237.606 45.8227 237.339 46.0627 237.147 46.372C236.955 46.6813 236.859 47.044 236.859 47.46C236.859 47.876 236.955 48.2387 237.147 48.548C237.339 48.8573 237.606 49.0973 237.947 49.268C238.288 49.4387 238.672 49.524 239.099 49.524C239.536 49.524 239.92 49.4387 240.251 49.268C240.592 49.0973 240.859 48.8573 241.051 48.548C241.254 48.2387 241.355 47.876 241.355 47.46C241.355 47.044 241.254 46.6813 241.051 46.372C240.859 46.0627 240.592 45.8227 240.251 45.652C239.92 45.4813 239.536 45.396 239.099 45.396ZM254.094 44.26C254.819 44.26 255.459 44.4733 256.014 44.9C256.569 45.3267 257.006 45.924 257.326 46.692C257.646 47.46 257.806 48.3667 257.806 49.412C257.806 50.468 257.646 51.3853 257.326 52.164C257.006 52.932 256.569 53.5293 256.014 53.956C255.459 54.372 254.819 54.58 254.094 54.58C253.379 54.58 252.739 54.372 252.174 53.956C251.619 53.5293 251.182 52.932 250.862 52.164C250.553 51.3853 250.398 50.468 250.398 49.412C250.398 48.3667 250.553 47.46 250.862 46.692C251.182 45.924 251.619 45.3267 252.174 44.9C252.739 44.4733 253.379 44.26 254.094 44.26ZM254.094 45.78C253.678 45.78 253.31 45.924 252.99 46.212C252.681 46.5 252.435 46.916 252.254 47.46C252.083 48.004 251.998 48.6547 251.998 49.412C251.998 50.18 252.083 50.836 252.254 51.38C252.435 51.924 252.681 52.3453 252.99 52.644C253.31 52.932 253.678 53.076 254.094 53.076C254.521 53.076 254.889 52.932 255.198 52.644C255.518 52.3453 255.763 51.924 255.934 51.38C256.115 50.836 256.206 50.18 256.206 49.412C256.206 48.6547 256.115 48.004 255.934 47.46C255.763 46.916 255.518 46.5 255.198 46.212C254.889 45.924 254.521 45.78 254.094 45.78ZM260.622 43.188H262.302V57.844H260.622V43.188ZM257.278 48.628H261.342V49.988H257.278V48.628ZM268.481 50.676H270.145V54.932H268.481V50.676ZM273.825 50.676H275.505V54.932H273.825V50.676ZM265.377 54.644H278.625V56.02H265.377V54.644ZM271.985 44.036C273.019 44.036 273.942 44.196 274.753 44.516C275.563 44.8253 276.198 45.268 276.657 45.844C277.126 46.4093 277.361 47.0813 277.361 47.86C277.361 48.6387 277.126 49.316 276.657 49.892C276.198 50.4573 275.563 50.9 274.753 51.22C273.942 51.5293 273.019 51.684 271.985 51.684C270.95 51.684 270.022 51.5293 269.201 51.22C268.39 50.9 267.75 50.4573 267.281 49.892C266.822 49.316 266.593 48.6387 266.593 47.86C266.593 47.0813 266.822 46.4093 267.281 45.844C267.75 45.268 268.39 44.8253 269.201 44.516C270.022 44.196 270.95 44.036 271.985 44.036ZM271.985 45.348C271.249 45.348 270.598 45.4493 270.033 45.652C269.467 45.8547 269.025 46.148 268.705 46.532C268.395 46.9053 268.241 47.348 268.241 47.86C268.241 48.372 268.395 48.82 268.705 49.204C269.025 49.5773 269.467 49.8707 270.033 50.084C270.598 50.2867 271.249 50.388 271.985 50.388C272.721 50.388 273.366 50.2867 273.921 50.084C274.486 49.8707 274.929 49.5773 275.249 49.204C275.569 48.82 275.729 48.372 275.729 47.86C275.729 47.348 275.569 46.9053 275.249 46.532C274.929 46.148 274.486 45.8547 273.921 45.652C273.366 45.4493 272.721 45.348 271.985 45.348ZM281.731 56.564C281.454 56.564 281.225 56.4733 281.043 56.292C280.862 56.1107 280.771 55.8813 280.771 55.604C280.771 55.3267 280.862 55.1027 281.043 54.932C281.225 54.7613 281.454 54.676 281.731 54.676C282.03 54.676 282.259 54.7613 282.419 54.932C282.59 55.1027 282.675 55.3267 282.675 55.604C282.675 55.8813 282.59 56.1107 282.419 56.292C282.259 56.4733 282.03 56.564 281.731 56.564Z" fill="#1E3445"/>
<rect x="397" y="34.5" width="3" height="138" fill="#1E3445"/>
<path d="M397 28.5V31.5V34.5H394V31.5H391V28.5H394H397Z" fill="#1E3445"/>
<path d="M3 28.5V31.5V34.5H6V31.5H9V28.5H6H3Z" fill="#1E3445"/>
<path d="M2.99536 175.5V178.5H5.99536V181.5H8.99536V178.5V175.5H5.99536V172.5H2.99536V175.5Z" fill="#1E3445"/>
<path d="M2.99536 175.5V172.5H-4.48227e-05V175.5H2.99536Z" fill="#1E3445"/>
<rect width="382.009" height="3" transform="matrix(1 0 0 -1 8.99536 181.5)" fill="#1E3445"/>
<path d="M397.005 175.5V178.5H394.005V181.5H391.005V178.5V175.5H394.005V172.5H397.005V175.5Z" fill="#1E3445"/>
<path d="M397.005 175.5V172.5H400V175.5H397.005Z" fill="#1E3445"/>
</g>
<g filter="url(#filter1_d_18_788)">
<path d="M210 128V131H207V134H204V159H207V162H210V165H213V128H210Z" fill="#554743"/>
</g>
<path d="M210 128V131H207V134H204V159H207V162H210V165H213V128H210Z" fill="white" fill-opacity="0.3"/>
<g filter="url(#filter2_d_18_788)">
<rect width="62" height="37" transform="translate(213 128)" fill="#554743"/>
<path d="M228.991 152.687C228.515 152.687 228.028 152.647 227.529 152.568C227.042 152.5 226.571 152.398 226.118 152.262C225.676 152.126 225.279 151.956 224.928 151.752C224.679 151.616 224.503 151.44 224.401 151.225C224.299 150.998 224.259 150.772 224.282 150.545C224.316 150.318 224.401 150.12 224.537 149.95C224.684 149.769 224.866 149.655 225.081 149.61C225.308 149.553 225.557 149.593 225.829 149.729C226.294 149.99 226.798 150.182 227.342 150.307C227.897 150.432 228.447 150.494 228.991 150.494C229.818 150.494 230.408 150.369 230.759 150.12C231.11 149.859 231.286 149.536 231.286 149.151C231.286 148.822 231.161 148.562 230.912 148.369C230.663 148.176 230.226 148.012 229.603 147.876L227.682 147.468C226.594 147.241 225.784 146.856 225.251 146.312C224.73 145.757 224.469 145.031 224.469 144.136C224.469 143.569 224.588 143.054 224.826 142.589C225.064 142.124 225.398 141.722 225.829 141.382C226.26 141.042 226.77 140.781 227.359 140.6C227.96 140.419 228.617 140.328 229.331 140.328C229.966 140.328 230.589 140.407 231.201 140.566C231.813 140.713 232.351 140.934 232.816 141.229C233.043 141.365 233.196 141.541 233.275 141.756C233.366 141.96 233.394 142.17 233.36 142.385C233.337 142.589 233.252 142.77 233.105 142.929C232.969 143.088 232.793 143.19 232.578 143.235C232.363 143.28 232.102 143.229 231.796 143.082C231.422 142.889 231.025 142.748 230.606 142.657C230.187 142.566 229.756 142.521 229.314 142.521C228.838 142.521 228.43 142.583 228.09 142.708C227.761 142.833 227.506 143.008 227.325 143.235C227.155 143.462 227.07 143.722 227.07 144.017C227.07 144.346 227.189 144.612 227.427 144.816C227.665 145.02 228.079 145.184 228.668 145.309L230.589 145.717C231.7 145.955 232.527 146.34 233.071 146.873C233.615 147.394 233.887 148.086 233.887 148.947C233.887 149.514 233.774 150.029 233.547 150.494C233.32 150.947 232.992 151.338 232.561 151.667C232.13 151.996 231.615 152.251 231.014 152.432C230.413 152.602 229.739 152.687 228.991 152.687ZM237.424 152.653C236.993 152.653 236.664 152.534 236.438 152.296C236.211 152.058 236.098 151.724 236.098 151.293V141.705C236.098 141.274 236.211 140.946 236.438 140.719C236.664 140.481 236.993 140.362 237.424 140.362C237.843 140.362 238.166 140.481 238.393 140.719C238.619 140.946 238.733 141.274 238.733 141.705V145.734H238.767L243.289 141.008C243.481 140.804 243.68 140.651 243.884 140.549C244.099 140.436 244.343 140.379 244.615 140.379C245.011 140.379 245.295 140.481 245.465 140.685C245.646 140.889 245.725 141.127 245.703 141.399C245.68 141.671 245.555 141.926 245.329 142.164L240.79 146.805L240.807 145.666L245.567 150.749C245.827 151.032 245.958 151.321 245.958 151.616C245.969 151.911 245.873 152.16 245.669 152.364C245.476 152.557 245.187 152.653 244.802 152.653C244.473 152.653 244.207 152.585 244.003 152.449C243.81 152.313 243.595 152.115 243.357 151.854L238.767 147.026H238.733V151.293C238.733 151.724 238.619 152.058 238.393 152.296C238.177 152.534 237.854 152.653 237.424 152.653ZM249.628 152.653C249.197 152.653 248.868 152.534 248.642 152.296C248.415 152.058 248.302 151.724 248.302 151.293V141.722C248.302 141.291 248.415 140.957 248.642 140.719C248.868 140.481 249.197 140.362 249.628 140.362C250.047 140.362 250.37 140.481 250.597 140.719C250.823 140.957 250.937 141.291 250.937 141.722V151.293C250.937 151.724 250.823 152.058 250.597 152.296C250.381 152.534 250.058 152.653 249.628 152.653ZM255.175 152.653C254.744 152.653 254.415 152.534 254.189 152.296C253.962 152.058 253.849 151.724 253.849 151.293V141.858C253.849 141.416 253.962 141.082 254.189 140.855C254.427 140.628 254.761 140.515 255.192 140.515H259.323C260.66 140.515 261.691 140.855 262.417 141.535C263.142 142.204 263.505 143.139 263.505 144.34C263.505 145.541 263.142 146.482 262.417 147.162C261.691 147.842 260.66 148.182 259.323 148.182H256.484V151.293C256.484 151.724 256.37 152.058 256.144 152.296C255.928 152.534 255.605 152.653 255.175 152.653ZM256.484 146.142H258.881C259.561 146.142 260.076 145.989 260.428 145.683C260.79 145.377 260.972 144.929 260.972 144.34C260.972 143.751 260.79 143.309 260.428 143.014C260.076 142.719 259.561 142.572 258.881 142.572H256.484V146.142Z" fill="white"/>
<rect x="213" y="128" width="62" height="37" fill="white" fill-opacity="0.3"/>
</g>
<g filter="url(#filter3_d_18_788)">
<path d="M278 165V162H281V159H284V134H281V131H278V128H275V165H278Z" fill="#554743"/>
</g>
<path d="M278 165V162H281V159H284V134H281V131H278V128H275V165H278Z" fill="white" fill-opacity="0.3"/>
<g filter="url(#filter4_d_18_788)">
<path d="M303 128V131H300V134H297V159H300V162H303V165H306V128H303Z" fill="#F24E1E"/>
</g>
<path d="M303 128V131H300V134H297V159H300V162H303V165H306V128H303Z" fill="white" fill-opacity="0.3"/>
<g filter="url(#filter5_d_18_788)">
<rect width="62" height="37" transform="translate(306 128)" fill="#F24E1E"/>
<path d="M325.372 152.653C324.941 152.653 324.613 152.534 324.386 152.296C324.159 152.058 324.046 151.718 324.046 151.276V146.346L324.59 147.859L320.578 142.164C320.419 141.926 320.351 141.671 320.374 141.399C320.397 141.116 320.51 140.872 320.714 140.668C320.918 140.464 321.207 140.362 321.581 140.362C321.853 140.362 322.097 140.43 322.312 140.566C322.539 140.702 322.754 140.917 322.958 141.212L325.678 145.139H325.134L327.854 141.212C328.069 140.906 328.279 140.691 328.483 140.566C328.698 140.43 328.948 140.362 329.231 140.362C329.594 140.362 329.877 140.458 330.081 140.651C330.285 140.832 330.393 141.065 330.404 141.348C330.415 141.62 330.319 141.903 330.115 142.198L326.154 147.859L326.681 146.346V151.276C326.681 152.194 326.245 152.653 325.372 152.653ZM334.539 152.5C334.097 152.5 333.757 152.381 333.519 152.143C333.281 151.905 333.162 151.565 333.162 151.123V141.892C333.162 141.45 333.281 141.11 333.519 140.872C333.757 140.634 334.097 140.515 334.539 140.515H340.472C340.812 140.515 341.067 140.606 341.237 140.787C341.418 140.957 341.509 141.206 341.509 141.535C341.509 141.875 341.418 142.136 341.237 142.317C341.067 142.487 340.812 142.572 340.472 142.572H335.678V145.377H340.081C340.432 145.377 340.693 145.468 340.863 145.649C341.044 145.819 341.135 146.074 341.135 146.414C341.135 146.754 341.044 147.015 340.863 147.196C340.693 147.366 340.432 147.451 340.081 147.451H335.678V150.443H340.472C340.812 150.443 341.067 150.534 341.237 150.715C341.418 150.885 341.509 151.134 341.509 151.463C341.509 151.803 341.418 152.064 341.237 152.245C341.067 152.415 340.812 152.5 340.472 152.5H334.539ZM348.073 152.687C347.597 152.687 347.11 152.647 346.611 152.568C346.124 152.5 345.653 152.398 345.2 152.262C344.758 152.126 344.361 151.956 344.01 151.752C343.761 151.616 343.585 151.44 343.483 151.225C343.381 150.998 343.341 150.772 343.364 150.545C343.398 150.318 343.483 150.12 343.619 149.95C343.766 149.769 343.948 149.655 344.163 149.61C344.39 149.553 344.639 149.593 344.911 149.729C345.376 149.99 345.88 150.182 346.424 150.307C346.979 150.432 347.529 150.494 348.073 150.494C348.9 150.494 349.49 150.369 349.841 150.12C350.192 149.859 350.368 149.536 350.368 149.151C350.368 148.822 350.243 148.562 349.994 148.369C349.745 148.176 349.308 148.012 348.685 147.876L346.764 147.468C345.676 147.241 344.866 146.856 344.333 146.312C343.812 145.757 343.551 145.031 343.551 144.136C343.551 143.569 343.67 143.054 343.908 142.589C344.146 142.124 344.48 141.722 344.911 141.382C345.342 141.042 345.852 140.781 346.441 140.6C347.042 140.419 347.699 140.328 348.413 140.328C349.048 140.328 349.671 140.407 350.283 140.566C350.895 140.713 351.433 140.934 351.898 141.229C352.125 141.365 352.278 141.541 352.357 141.756C352.448 141.96 352.476 142.17 352.442 142.385C352.419 142.589 352.334 142.77 352.187 142.929C352.051 143.088 351.875 143.19 351.66 143.235C351.445 143.28 351.184 143.229 350.878 143.082C350.504 142.889 350.107 142.748 349.688 142.657C349.269 142.566 348.838 142.521 348.396 142.521C347.92 142.521 347.512 142.583 347.172 142.708C346.843 142.833 346.588 143.008 346.407 143.235C346.237 143.462 346.152 143.722 346.152 144.017C346.152 144.346 346.271 144.612 346.509 144.816C346.747 145.02 347.161 145.184 347.75 145.309L349.671 145.717C350.782 145.955 351.609 146.34 352.153 146.873C352.697 147.394 352.969 148.086 352.969 148.947C352.969 149.514 352.856 150.029 352.629 150.494C352.402 150.947 352.074 151.338 351.643 151.667C351.212 151.996 350.697 152.251 350.096 152.432C349.495 152.602 348.821 152.687 348.073 152.687Z" fill="white"/>
<rect x="306" y="128" width="62" height="37" fill="white" fill-opacity="0.3"/>
</g>
<g filter="url(#filter6_d_18_788)">
<path d="M371 165V162H374V159H377V134H374V131H371V128H368V165H371Z" fill="#F24E1E"/>
</g>
<path d="M371 165V162H374V159H377V134H374V131H371V128H368V165H371Z" fill="white" fill-opacity="0.3"/>
<rect x="15.5" y="74.5" width="366" height="39" fill="white" stroke="#747474"/>
<line x1="107.5" y1="79" x2="107.5" y2="108" stroke="black"/>
<path d="M23.72 94.304H36.968V95.648H23.72V94.304ZM29.64 95.008H31.32V98.256H29.64V95.008ZM25.336 99.664H35.496V101.024H25.336V99.664ZM25.336 97.04H27V100.208H25.336V97.04ZM25.448 87.152H27.112V88.848H33.576V87.152H35.24V93.072H25.448V87.152ZM27.112 90.128V91.76H33.576V90.128H27.112ZM45.5308 96.816C47.1414 96.816 48.3841 97.008 49.2588 97.392C50.1334 97.7653 50.5708 98.3253 50.5708 99.072C50.5708 99.808 50.1334 100.363 49.2588 100.736C48.3841 101.109 47.1414 101.296 45.5308 101.296C43.9308 101.296 42.6934 101.109 41.8188 100.736C40.9441 100.363 40.5068 99.808 40.5068 99.072C40.5068 98.3253 40.9441 97.7653 41.8188 97.392C42.6934 97.008 43.9308 96.816 45.5308 96.816ZM45.5468 98.032C44.4481 98.032 43.6161 98.1173 43.0508 98.288C42.4854 98.4587 42.2028 98.72 42.2028 99.072C42.2028 99.4027 42.4854 99.6533 43.0508 99.824C43.6161 99.9947 44.4481 100.08 45.5468 100.08C46.6454 100.08 47.4721 99.9947 48.0268 99.824C48.5814 99.6533 48.8588 99.4027 48.8588 99.072C48.8588 98.72 48.5814 98.4587 48.0268 98.288C47.4721 98.1173 46.6454 98.032 45.5468 98.032ZM39.6108 87.84H51.4348V89.136H39.6108V87.84ZM45.5628 89.632C47.0988 89.632 48.2774 89.808 49.0988 90.16C49.9308 90.512 50.3468 91.0293 50.3468 91.712C50.3468 92.3947 49.9308 92.9173 49.0988 93.28C48.2774 93.632 47.0988 93.808 45.5628 93.808C44.0268 93.808 42.8428 93.632 42.0108 93.28C41.1788 92.9173 40.7628 92.3947 40.7628 91.712C40.7628 91.0293 41.1788 90.512 42.0108 90.16C42.8428 89.808 44.0268 89.632 45.5628 89.632ZM45.5628 90.784C44.5708 90.784 43.8188 90.864 43.3068 91.024C42.8054 91.1733 42.5548 91.4027 42.5548 91.712C42.5548 92.032 42.8054 92.272 43.3068 92.432C43.8188 92.5813 44.5708 92.656 45.5628 92.656C46.5548 92.656 47.3014 92.5813 47.8028 92.432C48.3148 92.272 48.5708 92.032 48.5708 91.712C48.5708 91.4027 48.3148 91.1733 47.8028 91.024C47.3014 90.864 46.5548 90.784 45.5628 90.784ZM44.7308 86.528H46.3948V88.704H44.7308V86.528ZM38.9548 94.736H52.1708V96.064H38.9548V94.736ZM44.7308 93.296H46.3948V95.328H44.7308V93.296ZM65.8374 90.464H69.7254V91.84H65.8374V90.464ZM59.5174 87.536H61.1814V89.744H64.6054V87.536H66.2534V94.576H59.5174V87.536ZM61.1814 91.056V93.248H64.6054V91.056H61.1814ZM69.2774 86.704H70.9574V96.752H69.2774V86.704ZM65.3094 95.824H66.7494V96.208C66.7494 96.8267 66.6107 97.4187 66.3334 97.984C66.0667 98.5387 65.6827 99.04 65.1814 99.488C64.68 99.936 64.088 100.309 63.4054 100.608C62.7227 100.917 61.976 101.136 61.1654 101.264L60.5414 99.952C61.2454 99.8453 61.8854 99.6747 62.4614 99.44C63.048 99.1947 63.5547 98.9013 63.9814 98.56C64.408 98.2187 64.7334 97.8507 64.9574 97.456C65.192 97.0507 65.3094 96.6347 65.3094 96.208V95.824ZM65.5974 95.824H67.0374V96.208C67.0374 96.6453 67.1494 97.072 67.3734 97.488C67.608 97.8933 67.9334 98.2613 68.3494 98.592C68.776 98.9227 69.2774 99.2053 69.8534 99.44C70.44 99.6747 71.096 99.8453 71.8214 99.952L71.1814 101.264C70.36 101.136 69.608 100.923 68.9254 100.624C68.2427 100.325 67.656 99.9573 67.1654 99.52C66.6747 99.072 66.2907 98.5707 66.0134 98.016C65.736 97.4613 65.5974 96.8587 65.5974 96.208V95.824ZM80.8001 87.216H84.9281V88.56H80.8001V87.216ZM74.0801 92.784H87.2641V94.128H74.0801V92.784ZM80.1121 90.48H81.7601V93.648H80.1121V90.48ZM84.2401 87.216H85.8721V87.936C85.8721 88.3733 85.8561 88.9387 85.8241 89.632C85.7921 90.3147 85.6641 91.104 85.4401 92L83.8241 91.824C84.0375 90.9067 84.1601 90.1387 84.1921 89.52C84.2241 88.8907 84.2401 88.3627 84.2401 87.936V87.216ZM75.1681 87.216H78.8641V88.56H75.1681V87.216ZM78.0321 87.216H79.6481V87.872C79.6481 88.3093 79.6161 88.8853 79.5521 89.6C79.4988 90.304 79.2961 91.1147 78.9441 92.032L77.3121 91.776C77.5468 91.136 77.7121 90.5813 77.8081 90.112C77.9148 89.632 77.9788 89.2107 78.0001 88.848C78.0215 88.4747 78.0321 88.1493 78.0321 87.872V87.216ZM79.8081 96.72H81.2321V96.96C81.2321 97.504 81.0988 98.016 80.8321 98.496C80.5655 98.976 80.1868 99.4027 79.6961 99.776C79.2055 100.149 78.6241 100.464 77.9521 100.72C77.2801 100.976 76.5388 101.152 75.7281 101.248L75.1521 99.984C75.8455 99.9093 76.4748 99.776 77.0401 99.584C77.6161 99.392 78.1068 99.1627 78.5121 98.896C78.9281 98.6187 79.2481 98.3147 79.4721 97.984C79.6961 97.6533 79.8081 97.312 79.8081 96.96V96.72ZM80.0961 96.72H81.5041V96.96C81.5041 97.2373 81.5735 97.5147 81.7121 97.792C81.8615 98.0587 82.0695 98.3093 82.3361 98.544C82.6135 98.7787 82.9441 98.9973 83.3281 99.2C83.7121 99.392 84.1441 99.5573 84.6241 99.696C85.1041 99.824 85.6215 99.92 86.1761 99.984L85.5841 101.248C84.7841 101.152 84.0481 100.976 83.3761 100.72C82.7041 100.475 82.1228 100.165 81.6321 99.792C81.1415 99.4187 80.7628 98.992 80.4961 98.512C80.2295 98.032 80.0961 97.5147 80.0961 96.96V96.72ZM75.7441 95.984H85.5841V97.28H75.7441V95.984ZM79.8081 94.624H81.5041V96.464H79.8081V94.624ZM99.6349 86.688H101.315V101.344H99.6349V86.688ZM93.5389 87.76C94.2642 87.76 94.9095 87.9733 95.4749 88.4C96.0509 88.8267 96.4989 89.424 96.8189 90.192C97.1389 90.96 97.2989 91.8667 97.2989 92.912C97.2989 93.968 97.1389 94.8853 96.8189 95.664C96.4989 96.432 96.0509 97.0293 95.4749 97.456C94.9095 97.872 94.2642 98.08 93.5389 98.08C92.8135 98.08 92.1629 97.872 91.5869 97.456C91.0215 97.0293 90.5735 96.432 90.2429 95.664C89.9229 94.8853 89.7629 93.968 89.7629 92.912C89.7629 91.8667 89.9229 90.96 90.2429 90.192C90.5735 89.424 91.0215 88.8267 91.5869 88.4C92.1629 87.9733 92.8135 87.76 93.5389 87.76ZM93.5389 89.28C93.1122 89.28 92.7335 89.424 92.4029 89.712C92.0829 90 91.8322 90.416 91.6509 90.96C91.4695 91.504 91.3789 92.1547 91.3789 92.912C91.3789 93.68 91.4695 94.336 91.6509 94.88C91.8322 95.424 92.0829 95.8453 92.4029 96.144C92.7335 96.432 93.1122 96.576 93.5389 96.576C93.9655 96.576 94.3389 96.432 94.6589 96.144C94.9789 95.8453 95.2295 95.424 95.4109 94.88C95.5922 94.336 95.6829 93.68 95.6829 92.912C95.6829 92.1547 95.5922 91.504 95.4109 90.96C95.2295 90.416 94.9789 90 94.6589 89.712C94.3389 89.424 93.9655 89.28 93.5389 89.28Z" fill="black"/>
<defs>
<filter id="filter0_d_18_788" x="0" y="0" width="403" height="210" filterUnits="userSpaceOnUse" color-interpolation-filters="sRGB">
<feFlood flood-opacity="0" result="BackgroundImageFix"/>
<feColorMatrix in="SourceAlpha" type="matrix" values="0 0 0 0 0 0 0 0 0 0 0 0 0 0 0 0 0 0 127 0" result="hardAlpha"/>
<feOffset dx="3" dy="3"/>
<feComposite in2="hardAlpha" operator="out"/>
<feColorMatrix type="matrix" values="0 0 0 0 0.117647 0 0 0 0 0.203922 0 0 0 0 0.270588 0 0 0 1 0"/>
<feBlend mode="normal" in2="BackgroundImageFix" result="effect1_dropShadow_18_788"/>
<feBlend mode="normal" in="SourceGraphic" in2="effect1_dropShadow_18_788" result="shape"/>
</filter>
<filter id="filter1_d_18_788" x="204" y="128" width="12" height="40" filterUnits="userSpaceOnUse" color-interpolation-filters="sRGB">
<feFlood flood-opacity="0" result="BackgroundImageFix"/>
<feColorMatrix in="SourceAlpha" type="matrix" values="0 0 0 0 0 0 0 0 0 0 0 0 0 0 0 0 0 0 127 0" result="hardAlpha"/>
<feOffset dx="3" dy="3"/>
<feComposite in2="hardAlpha" operator="out"/>
<feColorMatrix type="matrix" values="0 0 0 0 0.117647 0 0 0 0 0.203922 0 0 0 0 0.270588 0 0 0 1 0"/>
<feBlend mode="normal" in2="BackgroundImageFix" result="effect1_dropShadow_18_788"/>
<feBlend mode="normal" in="SourceGraphic" in2="effect1_dropShadow_18_788" result="shape"/>
</filter>
<filter id="filter2_d_18_788" x="213" y="128" width="65" height="40" filterUnits="userSpaceOnUse" color-interpolation-filters="sRGB">
<feFlood flood-opacity="0" result="BackgroundImageFix"/>
<feColorMatrix in="SourceAlpha" type="matrix" values="0 0 0 0 0 0 0 0 0 0 0 0 0 0 0 0 0 0 127 0" result="hardAlpha"/>
<feOffset dx="3" dy="3"/>
<feComposite in2="hardAlpha" operator="out"/>
<feColorMatrix type="matrix" values="0 0 0 0 0.117647 0 0 0 0 0.203922 0 0 0 0 0.270588 0 0 0 1 0"/>
<feBlend mode="normal" in2="BackgroundImageFix" result="effect1_dropShadow_18_788"/>
<feBlend mode="normal" in="SourceGraphic" in2="effect1_dropShadow_18_788" result="shape"/>
</filter>
<filter id="filter3_d_18_788" x="275" y="128" width="12" height="40" filterUnits="userSpaceOnUse" color-interpolation-filters="sRGB">
<feFlood flood-opacity="0" result="BackgroundImageFix"/>
<feColorMatrix in="SourceAlpha" type="matrix" values="0 0 0 0 0 0 0 0 0 0 0 0 0 0 0 0 0 0 127 0" result="hardAlpha"/>
<feOffset dx="3" dy="3"/>
<feComposite in2="hardAlpha" operator="out"/>
<feColorMatrix type="matrix" values="0 0 0 0 0.117647 0 0 0 0 0.203922 0 0 0 0 0.270588 0 0 0 1 0"/>
<feBlend mode="normal" in2="BackgroundImageFix" result="effect1_dropShadow_18_788"/>
<feBlend mode="normal" in="SourceGraphic" in2="effect1_dropShadow_18_788" result="shape"/>
</filter>
<filter id="filter4_d_18_788" x="297" y="128" width="12" height="40" filterUnits="userSpaceOnUse" color-interpolation-filters="sRGB">
<feFlood flood-opacity="0" result="BackgroundImageFix"/>
<feColorMatrix in="SourceAlpha" type="matrix" values="0 0 0 0 0 0 0 0 0 0 0 0 0 0 0 0 0 0 127 0" result="hardAlpha"/>
<feOffset dx="3" dy="3"/>
<feComposite in2="hardAlpha" operator="out"/>
<feColorMatrix type="matrix" values="0 0 0 0 0.117647 0 0 0 0 0.203922 0 0 0 0 0.270588 0 0 0 1 0"/>
<feBlend mode="normal" in2="BackgroundImageFix" result="effect1_dropShadow_18_788"/>
<feBlend mode="normal" in="SourceGraphic" in2="effect1_dropShadow_18_788" result="shape"/>
</filter>
<filter id="filter5_d_18_788" x="306" y="128" width="65" height="40" filterUnits="userSpaceOnUse" color-interpolation-filters="sRGB">
<feFlood flood-opacity="0" result="BackgroundImageFix"/>
<feColorMatrix in="SourceAlpha" type="matrix" values="0 0 0 0 0 0 0 0 0 0 0 0 0 0 0 0 0 0 127 0" result="hardAlpha"/>
<feOffset dx="3" dy="3"/>
<feComposite in2="hardAlpha" operator="out"/>
<feColorMatrix type="matrix" values="0 0 0 0 0.117647 0 0 0 0 0.203922 0 0 0 0 0.270588 0 0 0 1 0"/>
<feBlend mode="normal" in2="BackgroundImageFix" result="effect1_dropShadow_18_788"/>
<feBlend mode="normal" in="SourceGraphic" in2="effect1_dropShadow_18_788" result="shape"/>
</filter>
<filter id="filter6_d_18_788" x="368" y="128" width="12" height="40" filterUnits="userSpaceOnUse" color-interpolation-filters="sRGB">
<feFlood flood-opacity="0" result="BackgroundImageFix"/>
<feColorMatrix in="SourceAlpha" type="matrix" values="0 0 0 0 0 0 0 0 0 0 0 0 0 0 0 0 0 0 127 0" result="hardAlpha"/>
<feOffset dx="3" dy="3"/>
<feComposite in2="hardAlpha" operator="out"/>
<feColorMatrix type="matrix" values="0 0 0 0 0.117647 0 0 0 0 0.203922 0 0 0 0 0.270588 0 0 0 1 0"/>
<feBlend mode="normal" in2="BackgroundImageFix" result="effect1_dropShadow_18_788"/>
<feBlend mode="normal" in="SourceGraphic" in2="effect1_dropShadow_18_788" result="shape"/>
</filter>
</defs>
</svg>
