<svg width="212" height="40" viewBox="0 0 212 40" fill="none" xmlns="http://www.w3.org/2000/svg">
<g filter="url(#filter0_d_18_839)">
<path d="M6 0V3H3V6H0V31H3V34H6V37H9V0H6Z" fill="#505050"/>
</g>
<path d="M6 0V3H3V6H0V31H3V34H6V37H9V0H6Z" fill="white" fill-opacity="0.3"/>
<g filter="url(#filter1_d_18_839)">
<rect width="180" height="37" transform="translate(9)" fill="#505050"/>
<path d="M25.58 11.886H26.685V14.827C26.685 15.6317 26.6 16.4193 26.43 17.19C26.26 17.9493 26.022 18.669 25.716 19.349C25.41 20.029 25.0303 20.641 24.577 21.185C24.135 21.7177 23.6363 22.154 23.081 22.494L22.18 21.457C22.7127 21.1397 23.183 20.743 23.591 20.267C24.0103 19.791 24.3673 19.2583 24.662 18.669C24.968 18.0683 25.1947 17.445 25.342 16.799C25.5007 16.1417 25.58 15.4843 25.58 14.827V11.886ZM25.818 11.886H26.94V14.742C26.94 15.3767 27.008 16.0057 27.144 16.629C27.2913 17.2523 27.501 17.8417 27.773 18.397C28.0563 18.9523 28.3963 19.4567 28.793 19.91C29.1897 20.3633 29.643 20.726 30.153 20.998L29.303 22.103C28.7477 21.7857 28.249 21.372 27.807 20.862C27.3763 20.3407 27.0137 19.7513 26.719 19.094C26.4243 18.4367 26.1977 17.7397 26.039 17.003C25.8917 16.2663 25.818 15.5127 25.818 14.742V11.886ZM34.063 10.441H35.423V25.826H34.063V10.441ZM31.615 16.629H34.573V17.785H31.615V16.629ZM30.68 10.764H32.023V25.044H30.68V10.764ZM38.4887 22.749H52.4287V23.922H38.4887V22.749ZM44.7277 19.468H46.1217V23.242H44.7277V19.468ZM40.1887 11.58H50.6947V16.238H41.6167V19.315H40.2227V15.116H49.3007V12.736H40.1887V11.58ZM40.2227 18.72H51.0517V19.876H40.2227V18.72ZM54.6103 18.244H68.5503V19.4H54.6103V18.244ZM60.9853 18.975H62.4133V22.511H60.9853V18.975ZM56.3953 24.313H67.0033V25.486H56.3953V24.313ZM56.3953 20.998H57.8063V24.636H56.3953V20.998ZM61.5633 10.832C62.6513 10.832 63.5977 10.9567 64.4023 11.206C65.207 11.4553 65.8303 11.8123 66.2723 12.277C66.7257 12.7303 66.9523 13.28 66.9523 13.926C66.9523 14.5493 66.7257 15.0933 66.2723 15.558C65.8303 16.0227 65.207 16.3797 64.4023 16.629C63.5977 16.8783 62.6513 17.003 61.5633 17.003C60.4867 17.003 59.5403 16.8783 58.7243 16.629C57.9197 16.3797 57.2907 16.0227 56.8373 15.558C56.3953 15.0933 56.1743 14.5493 56.1743 13.926C56.1743 13.28 56.3953 12.7303 56.8373 12.277C57.2907 11.8123 57.9197 11.4553 58.7243 11.206C59.5403 10.9567 60.4867 10.832 61.5633 10.832ZM61.5633 11.971C60.7927 11.971 60.1127 12.0503 59.5233 12.209C58.934 12.3677 58.475 12.5943 58.1463 12.889C57.829 13.1723 57.6703 13.518 57.6703 13.926C57.6703 14.3227 57.829 14.6683 58.1463 14.963C58.475 15.2463 58.934 15.4673 59.5233 15.626C60.1127 15.7733 60.7927 15.847 61.5633 15.847C62.3567 15.847 63.0423 15.7733 63.6203 15.626C64.1983 15.4673 64.646 15.2463 64.9633 14.963C65.292 14.6683 65.4563 14.3227 65.4563 13.926C65.4563 13.518 65.292 13.1723 64.9633 12.889C64.646 12.5943 64.1983 12.3677 63.6203 12.209C63.0423 12.0503 62.3567 11.971 61.5633 11.971ZM86.1718 10.441H87.5828V18.261H86.1718V10.441ZM86.9538 13.756H89.8438V14.929H86.9538V13.756ZM77.8078 18.992H87.5828V22.766H79.2358V25.078H77.8588V21.712H86.1888V20.114H77.8078V18.992ZM77.8588 24.483H88.1268V25.622H77.8588V24.483ZM79.8988 11.002C80.6695 11.002 81.3495 11.1437 81.9388 11.427C82.5395 11.7103 83.0098 12.1127 83.3498 12.634C83.6898 13.144 83.8598 13.739 83.8598 14.419C83.8598 15.0877 83.6898 15.6827 83.3498 16.204C83.0098 16.714 82.5395 17.1163 81.9388 17.411C81.3495 17.6943 80.6695 17.836 79.8988 17.836C79.1395 17.836 78.4595 17.6943 77.8588 17.411C77.2582 17.1163 76.7822 16.714 76.4308 16.204C76.0908 15.6827 75.9208 15.082 75.9208 14.402C75.9208 13.7333 76.0908 13.144 76.4308 12.634C76.7822 12.1127 77.2582 11.7103 77.8588 11.427C78.4595 11.1437 79.1395 11.002 79.8988 11.002ZM79.8988 12.158C79.4002 12.158 78.9525 12.2543 78.5558 12.447C78.1705 12.6397 77.8645 12.906 77.6378 13.246C77.4112 13.5747 77.2978 13.9657 77.2978 14.419C77.2978 14.861 77.4112 15.252 77.6378 15.592C77.8645 15.932 78.1705 16.204 78.5558 16.408C78.9525 16.6007 79.4002 16.697 79.8988 16.697C80.3975 16.697 80.8395 16.6007 81.2248 16.408C81.6215 16.204 81.9332 15.932 82.1598 15.592C82.3865 15.252 82.4998 14.861 82.4998 14.419C82.4998 13.9657 82.3865 13.5747 82.1598 13.246C81.9332 12.906 81.6215 12.6397 81.2248 12.447C80.8395 12.2543 80.3975 12.158 79.8988 12.158ZM102.311 10.458H103.722V19.621H102.311V10.458ZM103.28 14.385H106V15.575H103.28V14.385ZM94.0315 20.369H103.722V25.622H94.0315V20.369ZM102.345 21.491H95.4085V24.466H102.345V21.491ZM92.4505 17.649H93.6575C94.5868 17.649 95.4425 17.6377 96.2245 17.615C97.0178 17.5923 97.7828 17.547 98.5195 17.479C99.2675 17.411 100.038 17.309 100.832 17.173L100.968 18.312C100.152 18.448 99.3638 18.5557 98.6045 18.635C97.8565 18.703 97.0802 18.754 96.2755 18.788C95.4822 18.8107 94.6095 18.822 93.6575 18.822H92.4505V17.649ZM92.4165 11.274H99.3355V15.507H93.8445V18.312H92.4505V14.419H97.9585V12.43H92.4165V11.274ZM119.095 10.441H120.506V25.843H119.095V10.441ZM112.397 11.631C113.157 11.631 113.825 11.852 114.403 12.294C114.993 12.7247 115.452 13.3423 115.78 14.147C116.12 14.9517 116.29 15.898 116.29 16.986C116.29 18.074 116.12 19.0203 115.78 19.825C115.452 20.6297 114.993 21.253 114.403 21.695C113.825 22.137 113.157 22.358 112.397 22.358C111.638 22.358 110.964 22.137 110.374 21.695C109.785 21.253 109.32 20.6297 108.98 19.825C108.652 19.0203 108.487 18.074 108.487 16.986C108.487 15.898 108.652 14.9517 108.98 14.147C109.32 13.3423 109.785 12.7247 110.374 12.294C110.964 11.852 111.638 11.631 112.397 11.631ZM112.397 12.889C111.887 12.889 111.44 13.059 111.054 13.399C110.68 13.7277 110.386 14.2037 110.17 14.827C109.955 15.439 109.847 16.1587 109.847 16.986C109.847 17.8133 109.955 18.5387 110.17 19.162C110.386 19.774 110.68 20.25 111.054 20.59C111.44 20.93 111.887 21.1 112.397 21.1C112.896 21.1 113.332 20.93 113.706 20.59C114.092 20.25 114.392 19.774 114.607 19.162C114.823 18.5387 114.93 17.8133 114.93 16.986C114.93 16.1587 114.823 15.439 114.607 14.827C114.392 14.2037 114.092 13.7277 113.706 13.399C113.332 13.059 112.896 12.889 112.397 12.889ZM132.773 19.91H133.878V20.726C133.878 21.3947 133.742 22.052 133.47 22.698C133.198 23.344 132.801 23.922 132.28 24.432C131.77 24.942 131.141 25.333 130.393 25.605L129.696 24.568C130.342 24.33 130.891 24.0013 131.345 23.582C131.809 23.1627 132.161 22.7093 132.399 22.222C132.648 21.7233 132.773 21.2247 132.773 20.726V19.91ZM133.096 19.91H134.133V20.726C134.133 21.2473 134.235 21.763 134.439 22.273C134.643 22.783 134.949 23.2477 135.357 23.667C135.776 24.0863 136.286 24.4207 136.887 24.67L136.309 25.741C135.561 25.4463 134.949 25.0383 134.473 24.517C134.008 23.9957 133.662 23.4063 133.436 22.749C133.209 22.0803 133.096 21.406 133.096 20.726V19.91ZM138.468 19.91H139.505V20.726C139.505 21.3267 139.386 21.9557 139.148 22.613C138.921 23.2703 138.57 23.8823 138.094 24.449C137.629 25.0043 137.034 25.435 136.309 25.741L135.697 24.67C136.309 24.3867 136.819 24.024 137.227 23.582C137.635 23.1287 137.941 22.6527 138.145 22.154C138.36 21.644 138.468 21.168 138.468 20.726V19.91ZM138.74 19.91H139.845V20.726C139.845 21.2587 139.964 21.7743 140.202 22.273C140.451 22.7717 140.802 23.225 141.256 23.633C141.72 24.0297 142.276 24.3413 142.922 24.568L142.225 25.605C141.477 25.333 140.842 24.9533 140.321 24.466C139.799 23.9673 139.403 23.4007 139.131 22.766C138.87 22.12 138.74 21.44 138.74 20.726V19.91ZM140.134 10.458H141.545V19.23H140.134V10.458ZM133.3 11.342C134.082 11.342 134.773 11.495 135.374 11.801C135.974 12.107 136.445 12.532 136.785 13.076C137.136 13.6087 137.312 14.232 137.312 14.946C137.312 15.6487 137.136 16.2663 136.785 16.799C136.445 17.3317 135.974 17.751 135.374 18.057C134.773 18.363 134.082 18.516 133.3 18.516C132.529 18.516 131.838 18.363 131.226 18.057C130.625 17.751 130.149 17.3317 129.798 16.799C129.458 16.2663 129.288 15.6487 129.288 14.946C129.288 14.232 129.458 13.6087 129.798 13.076C130.149 12.532 130.625 12.107 131.226 11.801C131.838 11.495 132.529 11.342 133.3 11.342ZM133.3 12.532C132.801 12.532 132.353 12.634 131.957 12.838C131.56 13.042 131.243 13.3253 131.005 13.688C130.778 14.0393 130.665 14.4587 130.665 14.946C130.665 15.422 130.778 15.8413 131.005 16.204C131.243 16.5553 131.56 16.833 131.957 17.037C132.353 17.241 132.801 17.343 133.3 17.343C133.81 17.343 134.263 17.241 134.66 17.037C135.056 16.833 135.368 16.5553 135.595 16.204C135.821 15.8413 135.935 15.422 135.935 14.946C135.935 14.4587 135.821 14.0393 135.595 13.688C135.368 13.3253 135.056 13.042 134.66 12.838C134.263 12.634 133.81 12.532 133.3 12.532ZM149.183 11.631C149.931 11.631 150.594 11.852 151.172 12.294C151.75 12.7247 152.198 13.3423 152.515 14.147C152.844 14.9517 153.008 15.898 153.008 16.986C153.008 18.074 152.844 19.0203 152.515 19.825C152.198 20.6297 151.75 21.253 151.172 21.695C150.594 22.137 149.931 22.358 149.183 22.358C148.447 22.358 147.784 22.137 147.194 21.695C146.616 21.253 146.163 20.6297 145.834 19.825C145.517 19.0203 145.358 18.074 145.358 16.986C145.358 15.898 145.517 14.9517 145.834 14.147C146.163 13.3423 146.616 12.7247 147.194 12.294C147.784 11.852 148.447 11.631 149.183 11.631ZM149.183 12.889C148.696 12.889 148.265 13.059 147.891 13.399C147.517 13.7277 147.223 14.2037 147.007 14.827C146.803 15.439 146.701 16.1587 146.701 16.986C146.701 17.8133 146.803 18.5387 147.007 19.162C147.223 19.774 147.517 20.25 147.891 20.59C148.265 20.93 148.696 21.1 149.183 21.1C149.682 21.1 150.118 20.93 150.492 20.59C150.866 20.25 151.155 19.774 151.359 19.162C151.575 18.5387 151.682 17.8133 151.682 16.986C151.682 16.1587 151.575 15.439 151.359 14.827C151.155 14.2037 150.866 13.7277 150.492 13.399C150.118 13.059 149.682 12.889 149.183 12.889ZM156.34 10.441H157.734V25.843H156.34V10.441ZM152.549 16.306H156.969V17.445H152.549V16.306ZM164.642 18.363H166.036V22.953H164.642V18.363ZM170.32 18.363H171.731V22.953H170.32V18.363ZM161.225 22.681H175.165V23.854H161.225V22.681ZM168.161 11.41C169.249 11.41 170.212 11.5743 171.051 11.903C171.89 12.2317 172.547 12.6907 173.023 13.28C173.51 13.8693 173.754 14.5663 173.754 15.371C173.754 16.1643 173.51 16.8613 173.023 17.462C172.547 18.0513 171.89 18.5103 171.051 18.839C170.212 19.1563 169.249 19.315 168.161 19.315C167.084 19.315 166.121 19.1563 165.271 18.839C164.432 18.5103 163.775 18.0513 163.299 17.462C162.823 16.8613 162.585 16.1643 162.585 15.371C162.585 14.5663 162.823 13.8693 163.299 13.28C163.775 12.6907 164.432 12.2317 165.271 11.903C166.121 11.5743 167.084 11.41 168.161 11.41ZM168.161 12.532C167.345 12.532 166.62 12.651 165.985 12.889C165.35 13.127 164.852 13.4613 164.489 13.892C164.126 14.3113 163.945 14.8043 163.945 15.371C163.945 15.9377 164.126 16.4363 164.489 16.867C164.852 17.2863 165.35 17.615 165.985 17.853C166.62 18.091 167.345 18.21 168.161 18.21C168.988 18.21 169.719 18.091 170.354 17.853C170.989 17.615 171.487 17.2863 171.85 16.867C172.213 16.4363 172.394 15.9377 172.394 15.371C172.394 14.8043 172.213 14.3113 171.85 13.892C171.487 13.4613 170.989 13.127 170.354 12.889C169.719 12.651 168.988 12.532 168.161 12.532Z" fill="white"/>
<rect x="9" width="180" height="37" fill="white" fill-opacity="0.3"/>
</g>
<g filter="url(#filter2_d_18_839)">
<path d="M192 37V34H195V31H198V6H195V3H192V0H189V37H192Z" fill="#505050"/>
</g>
<path d="M192 37V34H195V31H198V6H195V3H192V0H189V37H192Z" fill="white" fill-opacity="0.3"/>
<g filter="url(#filter3_d_18_839)">
<path d="M197 27H198V26.2178H199V25.4346H200V24.6523H201V23.8701H202V23.0869H203V22.3047H204V21.5215H205V20.7393H206V19.957H207V19.1738H208V18.3916H209V17.6084H208V16.8262H207V16.0439H206V15.2607H205V14.4785H204V13.6953H203V12.9131H202V12.1309H201V11.3477H200V10.5654H199V9.78223H198V9H197V27Z" fill="#505050"/>
</g>
<g filter="url(#filter4_d_18_839)">
<path d="M197 27H198V26.2178H199V25.4346H200V24.6523H201V23.8701H202V23.0869H203V22.3047H204V21.5215H205V20.7393H206V19.957H207V19.1738H208V18.3916H209V17.6084H208V16.8262H207V16.0439H206V15.2607H205V14.4785H204V13.6953H203V12.9131H202V12.1309H201V11.3477H200V10.5654H199V9.78223H198V9H197V27Z" fill="white" fill-opacity="0.3" shape-rendering="crispEdges"/>
</g>
<defs>
<filter id="filter0_d_18_839" x="0" y="0" width="12" height="40" filterUnits="userSpaceOnUse" color-interpolation-filters="sRGB">
<feFlood flood-opacity="0" result="BackgroundImageFix"/>
<feColorMatrix in="SourceAlpha" type="matrix" values="0 0 0 0 0 0 0 0 0 0 0 0 0 0 0 0 0 0 127 0" result="hardAlpha"/>
<feOffset dx="3" dy="3"/>
<feComposite in2="hardAlpha" operator="out"/>
<feColorMatrix type="matrix" values="0 0 0 0 0.117647 0 0 0 0 0.203922 0 0 0 0 0.270588 0 0 0 1 0"/>
<feBlend mode="normal" in2="BackgroundImageFix" result="effect1_dropShadow_18_839"/>
<feBlend mode="normal" in="SourceGraphic" in2="effect1_dropShadow_18_839" result="shape"/>
</filter>
<filter id="filter1_d_18_839" x="9" y="0" width="183" height="40" filterUnits="userSpaceOnUse" color-interpolation-filters="sRGB">
<feFlood flood-opacity="0" result="BackgroundImageFix"/>
<feColorMatrix in="SourceAlpha" type="matrix" values="0 0 0 0 0 0 0 0 0 0 0 0 0 0 0 0 0 0 127 0" result="hardAlpha"/>
<feOffset dx="3" dy="3"/>
<feComposite in2="hardAlpha" operator="out"/>
<feColorMatrix type="matrix" values="0 0 0 0 0.117647 0 0 0 0 0.203922 0 0 0 0 0.270588 0 0 0 1 0"/>
<feBlend mode="normal" in2="BackgroundImageFix" result="effect1_dropShadow_18_839"/>
<feBlend mode="normal" in="SourceGraphic" in2="effect1_dropShadow_18_839" result="shape"/>
</filter>
<filter id="filter2_d_18_839" x="189" y="0" width="12" height="40" filterUnits="userSpaceOnUse" color-interpolation-filters="sRGB">
<feFlood flood-opacity="0" result="BackgroundImageFix"/>
<feColorMatrix in="SourceAlpha" type="matrix" values="0 0 0 0 0 0 0 0 0 0 0 0 0 0 0 0 0 0 127 0" result="hardAlpha"/>
<feOffset dx="3" dy="3"/>
<feComposite in2="hardAlpha" operator="out"/>
<feColorMatrix type="matrix" values="0 0 0 0 0.117647 0 0 0 0 0.203922 0 0 0 0 0.270588 0 0 0 1 0"/>
<feBlend mode="normal" in2="BackgroundImageFix" result="effect1_dropShadow_18_839"/>
<feBlend mode="normal" in="SourceGraphic" in2="effect1_dropShadow_18_839" result="shape"/>
</filter>
<filter id="filter3_d_18_839" x="197" y="9" width="15" height="21" filterUnits="userSpaceOnUse" color-interpolation-filters="sRGB">
<feFlood flood-opacity="0" result="BackgroundImageFix"/>
<feColorMatrix in="SourceAlpha" type="matrix" values="0 0 0 0 0 0 0 0 0 0 0 0 0 0 0 0 0 0 127 0" result="hardAlpha"/>
<feOffset dx="3" dy="3"/>
<feComposite in2="hardAlpha" operator="out"/>
<feColorMatrix type="matrix" values="0 0 0 0 0.117647 0 0 0 0 0.203922 0 0 0 0 0.270588 0 0 0 1 0"/>
<feBlend mode="normal" in2="BackgroundImageFix" result="effect1_dropShadow_18_839"/>
<feBlend mode="normal" in="SourceGraphic" in2="effect1_dropShadow_18_839" result="shape"/>
</filter>
<filter id="filter4_d_18_839" x="197" y="9" width="15" height="21" filterUnits="userSpaceOnUse" color-interpolation-filters="sRGB">
<feFlood flood-opacity="0" result="BackgroundImageFix"/>
<feColorMatrix in="SourceAlpha" type="matrix" values="0 0 0 0 0 0 0 0 0 0 0 0 0 0 0 0 0 0 127 0" result="hardAlpha"/>
<feOffset dx="3" dy="3"/>
<feComposite in2="hardAlpha" operator="out"/>
<feColorMatrix type="matrix" values="0 0 0 0 0.117647 0 0 0 0 0.203922 0 0 0 0 0.270588 0 0 0 1 0"/>
<feBlend mode="normal" in2="BackgroundImageFix" result="effect1_dropShadow_18_839"/>
<feBlend mode="normal" in="SourceGraphic" in2="effect1_dropShadow_18_839" result="shape"/>
</filter>
</defs>
</svg>
