<svg width="90" height="40" viewBox="0 0 90 40" fill="none" xmlns="http://www.w3.org/2000/svg">
<g filter="url(#filter0_d_18_928)">
<path d="M6 0V3H3V6H0V31H3V34H6V37H9V0H6Z" fill="#F24E1E"/>
</g>
<path d="M6 0V3H3V6H0V31H3V34H6V37H9V0H6Z" fill="white" fill-opacity="0.3"/>
<g filter="url(#filter1_d_18_928)">
<rect width="69" height="37" transform="translate(9)" fill="#F24E1E"/>
<path d="M24.491 24.6869C24.015 24.6869 23.5277 24.6473 23.029 24.5679C22.5417 24.4999 22.0713 24.3979 21.618 24.2619C21.176 24.1259 20.7793 23.9559 20.428 23.7519C20.1787 23.6159 20.003 23.4403 19.901 23.2249C19.799 22.9983 19.7593 22.7716 19.782 22.5449C19.816 22.3183 19.901 22.1199 20.037 21.9499C20.1843 21.7686 20.3657 21.6553 20.581 21.6099C20.8077 21.5533 21.057 21.5929 21.329 21.7289C21.7937 21.9896 22.298 22.1823 22.842 22.3069C23.3973 22.4316 23.947 22.4939 24.491 22.4939C25.3183 22.4939 25.9077 22.3693 26.259 22.1199C26.6103 21.8593 26.786 21.5363 26.786 21.1509C26.786 20.8223 26.6613 20.5616 26.412 20.3689C26.1627 20.1763 25.7263 20.0119 25.103 19.8759L23.182 19.4679C22.094 19.2413 21.2837 18.8559 20.751 18.3119C20.2297 17.7566 19.969 17.0313 19.969 16.1359C19.969 15.5693 20.088 15.0536 20.326 14.5889C20.564 14.1243 20.8983 13.7219 21.329 13.3819C21.7597 13.0419 22.2697 12.7813 22.859 12.5999C23.4597 12.4186 24.117 12.3279 24.831 12.3279C25.4657 12.3279 26.089 12.4073 26.701 12.5659C27.313 12.7133 27.8513 12.9343 28.316 13.2289C28.5427 13.3649 28.6957 13.5406 28.775 13.7559C28.8657 13.9599 28.894 14.1696 28.86 14.3849C28.8373 14.5889 28.7523 14.7703 28.605 14.9289C28.469 15.0876 28.2933 15.1896 28.078 15.2349C27.8627 15.2803 27.602 15.2293 27.296 15.0819C26.922 14.8893 26.5253 14.7476 26.106 14.6569C25.6867 14.5663 25.256 14.5209 24.814 14.5209C24.338 14.5209 23.93 14.5833 23.59 14.7079C23.2613 14.8326 23.0063 15.0083 22.825 15.2349C22.655 15.4616 22.57 15.7223 22.57 16.0169C22.57 16.3456 22.689 16.6119 22.927 16.8159C23.165 17.0199 23.5787 17.1843 24.168 17.3089L26.089 17.7169C27.1997 17.9549 28.027 18.3403 28.571 18.8729C29.115 19.3943 29.387 20.0856 29.387 20.9469C29.387 21.5136 29.2737 22.0293 29.047 22.4939C28.8203 22.9473 28.4917 23.3383 28.061 23.6669C27.6303 23.9956 27.1147 24.2506 26.514 24.4319C25.9133 24.6019 25.239 24.6869 24.491 24.6869ZM32.9746 24.4999C32.5326 24.4999 32.1926 24.3809 31.9546 24.1429C31.7166 23.9049 31.5976 23.5649 31.5976 23.1229V13.8919C31.5976 13.4499 31.7166 13.1099 31.9546 12.8719C32.1926 12.6339 32.5326 12.5149 32.9746 12.5149H38.9076C39.2476 12.5149 39.5026 12.6056 39.6726 12.7869C39.854 12.9569 39.9446 13.2063 39.9446 13.5349C39.9446 13.8749 39.854 14.1356 39.6726 14.3169C39.5026 14.4869 39.2476 14.5719 38.9076 14.5719H34.1136V17.3769H38.5166C38.868 17.3769 39.1286 17.4676 39.2986 17.6489C39.48 17.8189 39.5706 18.0739 39.5706 18.4139C39.5706 18.7539 39.48 19.0146 39.2986 19.1959C39.1286 19.3659 38.868 19.4509 38.5166 19.4509H34.1136V22.4429H38.9076C39.2476 22.4429 39.5026 22.5336 39.6726 22.7149C39.854 22.8849 39.9446 23.1343 39.9446 23.4629C39.9446 23.8029 39.854 24.0636 39.6726 24.2449C39.5026 24.4149 39.2476 24.4999 38.9076 24.4999H32.9746ZM43.6146 24.6529C43.2179 24.6529 42.9119 24.5453 42.6966 24.3299C42.4926 24.1033 42.3906 23.7859 42.3906 23.3779V13.6879C42.3906 13.2573 42.4926 12.9286 42.6966 12.7019C42.9119 12.4753 43.1953 12.3619 43.5466 12.3619C43.8526 12.3619 44.0849 12.4243 44.2436 12.5489C44.4136 12.6623 44.6063 12.8549 44.8216 13.1269L50.7886 20.7259H50.3296V13.6199C50.3296 13.2233 50.4316 12.9173 50.6356 12.7019C50.8509 12.4753 51.1569 12.3619 51.5536 12.3619C51.9503 12.3619 52.2506 12.4753 52.4546 12.7019C52.6699 12.9173 52.7776 13.2233 52.7776 13.6199V23.4289C52.7776 23.8029 52.6813 24.1033 52.4886 24.3299C52.2959 24.5453 52.0353 24.6529 51.7066 24.6529C51.3893 24.6529 51.1343 24.5906 50.9416 24.4659C50.7603 24.3413 50.5619 24.1429 50.3466 23.8709L44.3966 16.2719H44.8386V23.3779C44.8386 23.7859 44.7366 24.1033 44.5326 24.3299C44.3286 24.5453 44.0226 24.6529 43.6146 24.6529ZM57.0674 24.4999C56.6254 24.4999 56.2854 24.3809 56.0474 24.1429C55.8094 23.9049 55.6904 23.5649 55.6904 23.1229V13.8919C55.6904 13.4499 55.8094 13.1099 56.0474 12.8719C56.2854 12.6339 56.6254 12.5149 57.0674 12.5149H60.3824C62.4337 12.5149 64.0147 13.0363 65.1254 14.0789C66.2474 15.1103 66.8084 16.5836 66.8084 18.4989C66.8084 19.4623 66.6611 20.3179 66.3664 21.0659C66.0831 21.8026 65.6694 22.4259 65.1254 22.9359C64.5814 23.4459 63.9127 23.8369 63.1194 24.1089C62.3261 24.3696 61.4137 24.4999 60.3824 24.4999H57.0674ZM58.3254 22.3409H60.2294C60.8754 22.3409 61.4364 22.2616 61.9124 22.1029C62.3884 21.9443 62.7851 21.7063 63.1024 21.3889C63.4197 21.0716 63.6577 20.6749 63.8164 20.1989C63.9751 19.7116 64.0544 19.1449 64.0544 18.4989C64.0544 17.2069 63.7314 16.2493 63.0854 15.6259C62.4507 14.9913 61.4987 14.6739 60.2294 14.6739H58.3254V22.3409Z" fill="white"/>
<rect x="9" width="69" height="37" fill="white" fill-opacity="0.3"/>
</g>
<g filter="url(#filter2_d_18_928)">
<path d="M81 37V34H84V31H87V6H84V3H81V0H78V37H81Z" fill="#F24E1E"/>
</g>
<path d="M81 37V34H84V31H87V6H84V3H81V0H78V37H81Z" fill="white" fill-opacity="0.3"/>
<defs>
<filter id="filter0_d_18_928" x="0" y="0" width="12" height="40" filterUnits="userSpaceOnUse" color-interpolation-filters="sRGB">
<feFlood flood-opacity="0" result="BackgroundImageFix"/>
<feColorMatrix in="SourceAlpha" type="matrix" values="0 0 0 0 0 0 0 0 0 0 0 0 0 0 0 0 0 0 127 0" result="hardAlpha"/>
<feOffset dx="3" dy="3"/>
<feComposite in2="hardAlpha" operator="out"/>
<feColorMatrix type="matrix" values="0 0 0 0 0.117647 0 0 0 0 0.203922 0 0 0 0 0.270588 0 0 0 1 0"/>
<feBlend mode="normal" in2="BackgroundImageFix" result="effect1_dropShadow_18_928"/>
<feBlend mode="normal" in="SourceGraphic" in2="effect1_dropShadow_18_928" result="shape"/>
</filter>
<filter id="filter1_d_18_928" x="9" y="0" width="72" height="40" filterUnits="userSpaceOnUse" color-interpolation-filters="sRGB">
<feFlood flood-opacity="0" result="BackgroundImageFix"/>
<feColorMatrix in="SourceAlpha" type="matrix" values="0 0 0 0 0 0 0 0 0 0 0 0 0 0 0 0 0 0 127 0" result="hardAlpha"/>
<feOffset dx="3" dy="3"/>
<feComposite in2="hardAlpha" operator="out"/>
<feColorMatrix type="matrix" values="0 0 0 0 0.117647 0 0 0 0 0.203922 0 0 0 0 0.270588 0 0 0 1 0"/>
<feBlend mode="normal" in2="BackgroundImageFix" result="effect1_dropShadow_18_928"/>
<feBlend mode="normal" in="SourceGraphic" in2="effect1_dropShadow_18_928" result="shape"/>
</filter>
<filter id="filter2_d_18_928" x="78" y="0" width="12" height="40" filterUnits="userSpaceOnUse" color-interpolation-filters="sRGB">
<feFlood flood-opacity="0" result="BackgroundImageFix"/>
<feColorMatrix in="SourceAlpha" type="matrix" values="0 0 0 0 0 0 0 0 0 0 0 0 0 0 0 0 0 0 127 0" result="hardAlpha"/>
<feOffset dx="3" dy="3"/>
<feComposite in2="hardAlpha" operator="out"/>
<feColorMatrix type="matrix" values="0 0 0 0 0.117647 0 0 0 0 0.203922 0 0 0 0 0.270588 0 0 0 1 0"/>
<feBlend mode="normal" in2="BackgroundImageFix" result="effect1_dropShadow_18_928"/>
<feBlend mode="normal" in="SourceGraphic" in2="effect1_dropShadow_18_928" result="shape"/>
</filter>
</defs>
</svg>
