<svg width="83" height="40" viewBox="0 0 83 40" fill="none" xmlns="http://www.w3.org/2000/svg">
<g filter="url(#filter0_d_18_791)">
<path d="M6 0V3H3V6H0V31H3V34H6V37H9V0H6Z" fill="#554743"/>
</g>
<path d="M6 0V3H3V6H0V31H3V34H6V37H9V0H6Z" fill="white" fill-opacity="0.3"/>
<g filter="url(#filter1_d_18_791)">
<rect width="62" height="37" transform="translate(9)" fill="#554743"/>
<path d="M24.991 24.687C24.515 24.687 24.0277 24.6473 23.529 24.568C23.0417 24.5 22.5713 24.398 22.118 24.262C21.676 24.126 21.2793 23.956 20.928 23.752C20.6787 23.616 20.503 23.4403 20.401 23.225C20.299 22.9983 20.2593 22.7717 20.282 22.545C20.316 22.3183 20.401 22.12 20.537 21.95C20.6843 21.7687 20.8657 21.6553 21.081 21.61C21.3077 21.5533 21.557 21.593 21.829 21.729C22.2937 21.9897 22.798 22.1823 23.342 22.307C23.8973 22.4317 24.447 22.494 24.991 22.494C25.8183 22.494 26.4077 22.3693 26.759 22.12C27.1103 21.8593 27.286 21.5363 27.286 21.151C27.286 20.8223 27.1613 20.5617 26.912 20.369C26.6627 20.1763 26.2263 20.012 25.603 19.876L23.682 19.468C22.594 19.2413 21.7837 18.856 21.251 18.312C20.7297 17.7567 20.469 17.0313 20.469 16.136C20.469 15.5693 20.588 15.0537 20.826 14.589C21.064 14.1243 21.3983 13.722 21.829 13.382C22.2597 13.042 22.7697 12.7813 23.359 12.6C23.9597 12.4187 24.617 12.328 25.331 12.328C25.9657 12.328 26.589 12.4073 27.201 12.566C27.813 12.7133 28.3513 12.9343 28.816 13.229C29.0427 13.365 29.1957 13.5407 29.275 13.756C29.3657 13.96 29.394 14.1697 29.36 14.385C29.3373 14.589 29.2523 14.7703 29.105 14.929C28.969 15.0877 28.7933 15.1897 28.578 15.235C28.3627 15.2803 28.102 15.2293 27.796 15.082C27.422 14.8893 27.0253 14.7477 26.606 14.657C26.1867 14.5663 25.756 14.521 25.314 14.521C24.838 14.521 24.43 14.5833 24.09 14.708C23.7613 14.8327 23.5063 15.0083 23.325 15.235C23.155 15.4617 23.07 15.7223 23.07 16.017C23.07 16.3457 23.189 16.612 23.427 16.816C23.665 17.02 24.0787 17.1843 24.668 17.309L26.589 17.717C27.6997 17.955 28.527 18.3403 29.071 18.873C29.615 19.3943 29.887 20.0857 29.887 20.947C29.887 21.5137 29.7737 22.0293 29.547 22.494C29.3203 22.9473 28.9917 23.3383 28.561 23.667C28.1303 23.9957 27.6147 24.2507 27.014 24.432C26.4133 24.602 25.739 24.687 24.991 24.687ZM33.4236 24.653C32.993 24.653 32.6643 24.534 32.4376 24.296C32.211 24.058 32.0976 23.7237 32.0976 23.293V13.705C32.0976 13.2743 32.211 12.9457 32.4376 12.719C32.6643 12.481 32.993 12.362 33.4236 12.362C33.843 12.362 34.166 12.481 34.3926 12.719C34.6193 12.9457 34.7326 13.2743 34.7326 13.705V17.734H34.7666L39.2886 13.008C39.4813 12.804 39.6796 12.651 39.8836 12.549C40.099 12.4357 40.3426 12.379 40.6146 12.379C41.0113 12.379 41.2946 12.481 41.4646 12.685C41.646 12.889 41.7253 13.127 41.7026 13.399C41.68 13.671 41.5553 13.926 41.3286 14.164L36.7896 18.805L36.8066 17.666L41.5666 22.749C41.8273 23.0323 41.9576 23.3213 41.9576 23.616C41.969 23.9107 41.8726 24.16 41.6686 24.364C41.476 24.5567 41.187 24.653 40.8016 24.653C40.473 24.653 40.2066 24.585 40.0026 24.449C39.81 24.313 39.5946 24.1147 39.3566 23.854L34.7666 19.026H34.7326V23.293C34.7326 23.7237 34.6193 24.058 34.3926 24.296C34.1773 24.534 33.8543 24.653 33.4236 24.653ZM45.6277 24.653C45.1971 24.653 44.8684 24.534 44.6417 24.296C44.4151 24.058 44.3017 23.7237 44.3017 23.293V13.722C44.3017 13.2913 44.4151 12.957 44.6417 12.719C44.8684 12.481 45.1971 12.362 45.6277 12.362C46.0471 12.362 46.3701 12.481 46.5967 12.719C46.8234 12.957 46.9367 13.2913 46.9367 13.722V23.293C46.9367 23.7237 46.8234 24.058 46.5967 24.296C46.3814 24.534 46.0584 24.653 45.6277 24.653ZM51.1746 24.653C50.7439 24.653 50.4153 24.534 50.1886 24.296C49.9619 24.058 49.8486 23.7237 49.8486 23.293V13.858C49.8486 13.416 49.9619 13.0817 50.1886 12.855C50.4266 12.6283 50.7609 12.515 51.1916 12.515H55.3226C56.6599 12.515 57.6913 12.855 58.4166 13.535C59.1419 14.2037 59.5046 15.1387 59.5046 16.34C59.5046 17.5413 59.1419 18.482 58.4166 19.162C57.6913 19.842 56.6599 20.182 55.3226 20.182H52.4836V23.293C52.4836 23.7237 52.3703 24.058 52.1436 24.296C51.9283 24.534 51.6053 24.653 51.1746 24.653ZM52.4836 18.142H54.8806C55.5606 18.142 56.0763 17.989 56.4276 17.683C56.7903 17.377 56.9716 16.9293 56.9716 16.34C56.9716 15.7507 56.7903 15.3087 56.4276 15.014C56.0763 14.7193 55.5606 14.572 54.8806 14.572H52.4836V18.142Z" fill="white"/>
<rect x="9" width="62" height="37" fill="white" fill-opacity="0.3"/>
</g>
<g filter="url(#filter2_d_18_791)">
<path d="M74 37V34H77V31H80V6H77V3H74V0H71V37H74Z" fill="#554743"/>
</g>
<path d="M74 37V34H77V31H80V6H77V3H74V0H71V37H74Z" fill="white" fill-opacity="0.3"/>
<defs>
<filter id="filter0_d_18_791" x="0" y="0" width="12" height="40" filterUnits="userSpaceOnUse" color-interpolation-filters="sRGB">
<feFlood flood-opacity="0" result="BackgroundImageFix"/>
<feColorMatrix in="SourceAlpha" type="matrix" values="0 0 0 0 0 0 0 0 0 0 0 0 0 0 0 0 0 0 127 0" result="hardAlpha"/>
<feOffset dx="3" dy="3"/>
<feComposite in2="hardAlpha" operator="out"/>
<feColorMatrix type="matrix" values="0 0 0 0 0.117647 0 0 0 0 0.203922 0 0 0 0 0.270588 0 0 0 1 0"/>
<feBlend mode="normal" in2="BackgroundImageFix" result="effect1_dropShadow_18_791"/>
<feBlend mode="normal" in="SourceGraphic" in2="effect1_dropShadow_18_791" result="shape"/>
</filter>
<filter id="filter1_d_18_791" x="9" y="0" width="65" height="40" filterUnits="userSpaceOnUse" color-interpolation-filters="sRGB">
<feFlood flood-opacity="0" result="BackgroundImageFix"/>
<feColorMatrix in="SourceAlpha" type="matrix" values="0 0 0 0 0 0 0 0 0 0 0 0 0 0 0 0 0 0 127 0" result="hardAlpha"/>
<feOffset dx="3" dy="3"/>
<feComposite in2="hardAlpha" operator="out"/>
<feColorMatrix type="matrix" values="0 0 0 0 0.117647 0 0 0 0 0.203922 0 0 0 0 0.270588 0 0 0 1 0"/>
<feBlend mode="normal" in2="BackgroundImageFix" result="effect1_dropShadow_18_791"/>
<feBlend mode="normal" in="SourceGraphic" in2="effect1_dropShadow_18_791" result="shape"/>
</filter>
<filter id="filter2_d_18_791" x="71" y="0" width="12" height="40" filterUnits="userSpaceOnUse" color-interpolation-filters="sRGB">
<feFlood flood-opacity="0" result="BackgroundImageFix"/>
<feColorMatrix in="SourceAlpha" type="matrix" values="0 0 0 0 0 0 0 0 0 0 0 0 0 0 0 0 0 0 127 0" result="hardAlpha"/>
<feOffset dx="3" dy="3"/>
<feComposite in2="hardAlpha" operator="out"/>
<feColorMatrix type="matrix" values="0 0 0 0 0.117647 0 0 0 0 0.203922 0 0 0 0 0.270588 0 0 0 1 0"/>
<feBlend mode="normal" in2="BackgroundImageFix" result="effect1_dropShadow_18_791"/>
<feBlend mode="normal" in="SourceGraphic" in2="effect1_dropShadow_18_791" result="shape"/>
</filter>
</defs>
</svg>
